%TF.GenerationSoftware,KiCad,Pcbnew,9.0.0*%
%TF.CreationDate,2025-04-01T09:39:50+05:30*%
%TF.ProjectId,WMS,574d532e-6b69-4636-9164-5f7063625858,rev?*%
%TF.SameCoordinates,Original*%
%TF.FileFunction,Soldermask,Bot*%
%TF.FilePolarity,Negative*%
%FSLAX46Y46*%
G04 Gerber Fmt 4.6, Leading zero omitted, Abs format (unit mm)*
G04 Created by KiCad (PCBNEW 9.0.0) date 2025-04-01 09:39:50*
%MOMM*%
%LPD*%
G01*
G04 APERTURE LIST*
%ADD10R,1.700000X1.700000*%
%ADD11O,1.700000X1.700000*%
%ADD12C,1.600000*%
%ADD13O,1.600000X1.600000*%
%ADD14R,2.000000X2.000000*%
%ADD15O,2.000000X1.600000*%
%ADD16R,2.200000X2.200000*%
%ADD17O,2.200000X2.200000*%
%ADD18R,1.500000X1.500000*%
%ADD19C,1.500000*%
G04 APERTURE END LIST*
D10*
%TO.C,J1*%
X163000000Y-80920000D03*
D11*
X163000000Y-83460000D03*
X163000000Y-86000000D03*
%TD*%
D12*
%TO.C,R5*%
X137380000Y-93450000D03*
D13*
X145000000Y-93450000D03*
%TD*%
D14*
%TO.C,U1*%
X106000000Y-73220000D03*
D15*
X106000000Y-75760000D03*
X106000000Y-78300000D03*
X106000000Y-80840000D03*
X106000000Y-83380000D03*
X106000000Y-85920000D03*
X106000000Y-88460000D03*
X106000000Y-91000000D03*
X128860000Y-91000000D03*
X128860000Y-88460000D03*
X128860000Y-85920000D03*
X128860000Y-83380000D03*
X128860000Y-80840000D03*
X128860000Y-78300000D03*
X128860000Y-75760000D03*
X128860000Y-73220000D03*
%TD*%
D12*
%TO.C,R1*%
X155400000Y-115000000D03*
X163000000Y-115000000D03*
%TD*%
%TO.C,R4*%
X137380000Y-89400000D03*
D13*
X145000000Y-89400000D03*
%TD*%
D16*
%TO.C,D1*%
X94500000Y-107340000D03*
D17*
X94500000Y-117500000D03*
%TD*%
D12*
%TO.C,R2*%
X137500000Y-82500000D03*
D13*
X145120000Y-82500000D03*
%TD*%
D12*
%TO.C,C2*%
X124500000Y-117500000D03*
X129500000Y-117500000D03*
%TD*%
D10*
%TO.C,J4*%
X163000000Y-74500000D03*
D11*
X163000000Y-71960000D03*
X163000000Y-69420000D03*
X163000000Y-66880000D03*
%TD*%
D10*
%TO.C,J2*%
X163000000Y-95000000D03*
D11*
X163000000Y-92460000D03*
%TD*%
D12*
%TO.C,C1*%
X124500000Y-111000000D03*
X129500000Y-111000000D03*
%TD*%
%TO.C,R6*%
X137380000Y-97500000D03*
D13*
X145000000Y-97500000D03*
%TD*%
D18*
%TO.C,U2*%
X95000000Y-67380000D03*
D19*
X95000000Y-69920000D03*
X95000000Y-72460000D03*
X95000000Y-75000000D03*
%TD*%
D12*
%TO.C,R3*%
X137500000Y-86000000D03*
D13*
X145120000Y-86000000D03*
%TD*%
D10*
%TO.C,J3*%
X163000000Y-107000000D03*
D11*
X163000000Y-104460000D03*
X163000000Y-101920000D03*
%TD*%
M02*
