%TF.GenerationSoftware,KiCad,Pcbnew,9.0.0*%
%TF.CreationDate,2025-04-01T09:49:52+05:30*%
%TF.ProjectId,WMS,574d532e-6b69-4636-9164-5f7063625858,rev?*%
%TF.SameCoordinates,Original*%
%TF.FileFunction,AssemblyDrawing,Top*%
%FSLAX46Y46*%
G04 Gerber Fmt 4.6, Leading zero omitted, Abs format (unit mm)*
G04 Created by KiCad (PCBNEW 9.0.0) date 2025-04-01 09:49:52*
%MOMM*%
%LPD*%
G01*
G04 APERTURE LIST*
%ADD10C,0.150000*%
%ADD11C,0.075000*%
%ADD12C,0.120000*%
%ADD13C,0.100000*%
G04 APERTURE END LIST*
D10*
X96731009Y-87953571D02*
X96778628Y-87810714D01*
X96778628Y-87810714D02*
X96826247Y-87763095D01*
X96826247Y-87763095D02*
X96921485Y-87715476D01*
X96921485Y-87715476D02*
X97064342Y-87715476D01*
X97064342Y-87715476D02*
X97159580Y-87763095D01*
X97159580Y-87763095D02*
X97207200Y-87810714D01*
X97207200Y-87810714D02*
X97254819Y-87905952D01*
X97254819Y-87905952D02*
X97254819Y-88286904D01*
X97254819Y-88286904D02*
X96254819Y-88286904D01*
X96254819Y-88286904D02*
X96254819Y-87953571D01*
X96254819Y-87953571D02*
X96302438Y-87858333D01*
X96302438Y-87858333D02*
X96350057Y-87810714D01*
X96350057Y-87810714D02*
X96445295Y-87763095D01*
X96445295Y-87763095D02*
X96540533Y-87763095D01*
X96540533Y-87763095D02*
X96635771Y-87810714D01*
X96635771Y-87810714D02*
X96683390Y-87858333D01*
X96683390Y-87858333D02*
X96731009Y-87953571D01*
X96731009Y-87953571D02*
X96731009Y-88286904D01*
X97254819Y-87286904D02*
X96254819Y-87286904D01*
X96254819Y-87286904D02*
X96969104Y-86953571D01*
X96969104Y-86953571D02*
X96254819Y-86620238D01*
X96254819Y-86620238D02*
X97254819Y-86620238D01*
X97254819Y-86144047D02*
X96254819Y-86144047D01*
X96254819Y-86144047D02*
X96254819Y-85763095D01*
X96254819Y-85763095D02*
X96302438Y-85667857D01*
X96302438Y-85667857D02*
X96350057Y-85620238D01*
X96350057Y-85620238D02*
X96445295Y-85572619D01*
X96445295Y-85572619D02*
X96588152Y-85572619D01*
X96588152Y-85572619D02*
X96683390Y-85620238D01*
X96683390Y-85620238D02*
X96731009Y-85667857D01*
X96731009Y-85667857D02*
X96778628Y-85763095D01*
X96778628Y-85763095D02*
X96778628Y-86144047D01*
X96350057Y-85191666D02*
X96302438Y-85144047D01*
X96302438Y-85144047D02*
X96254819Y-85048809D01*
X96254819Y-85048809D02*
X96254819Y-84810714D01*
X96254819Y-84810714D02*
X96302438Y-84715476D01*
X96302438Y-84715476D02*
X96350057Y-84667857D01*
X96350057Y-84667857D02*
X96445295Y-84620238D01*
X96445295Y-84620238D02*
X96540533Y-84620238D01*
X96540533Y-84620238D02*
X96683390Y-84667857D01*
X96683390Y-84667857D02*
X97254819Y-85239285D01*
X97254819Y-85239285D02*
X97254819Y-84620238D01*
X96683390Y-84048809D02*
X96635771Y-84144047D01*
X96635771Y-84144047D02*
X96588152Y-84191666D01*
X96588152Y-84191666D02*
X96492914Y-84239285D01*
X96492914Y-84239285D02*
X96445295Y-84239285D01*
X96445295Y-84239285D02*
X96350057Y-84191666D01*
X96350057Y-84191666D02*
X96302438Y-84144047D01*
X96302438Y-84144047D02*
X96254819Y-84048809D01*
X96254819Y-84048809D02*
X96254819Y-83858333D01*
X96254819Y-83858333D02*
X96302438Y-83763095D01*
X96302438Y-83763095D02*
X96350057Y-83715476D01*
X96350057Y-83715476D02*
X96445295Y-83667857D01*
X96445295Y-83667857D02*
X96492914Y-83667857D01*
X96492914Y-83667857D02*
X96588152Y-83715476D01*
X96588152Y-83715476D02*
X96635771Y-83763095D01*
X96635771Y-83763095D02*
X96683390Y-83858333D01*
X96683390Y-83858333D02*
X96683390Y-84048809D01*
X96683390Y-84048809D02*
X96731009Y-84144047D01*
X96731009Y-84144047D02*
X96778628Y-84191666D01*
X96778628Y-84191666D02*
X96873866Y-84239285D01*
X96873866Y-84239285D02*
X97064342Y-84239285D01*
X97064342Y-84239285D02*
X97159580Y-84191666D01*
X97159580Y-84191666D02*
X97207200Y-84144047D01*
X97207200Y-84144047D02*
X97254819Y-84048809D01*
X97254819Y-84048809D02*
X97254819Y-83858333D01*
X97254819Y-83858333D02*
X97207200Y-83763095D01*
X97207200Y-83763095D02*
X97159580Y-83715476D01*
X97159580Y-83715476D02*
X97064342Y-83667857D01*
X97064342Y-83667857D02*
X96873866Y-83667857D01*
X96873866Y-83667857D02*
X96778628Y-83715476D01*
X96778628Y-83715476D02*
X96731009Y-83763095D01*
X96731009Y-83763095D02*
X96683390Y-83858333D01*
X96254819Y-83048809D02*
X96254819Y-82953571D01*
X96254819Y-82953571D02*
X96302438Y-82858333D01*
X96302438Y-82858333D02*
X96350057Y-82810714D01*
X96350057Y-82810714D02*
X96445295Y-82763095D01*
X96445295Y-82763095D02*
X96635771Y-82715476D01*
X96635771Y-82715476D02*
X96873866Y-82715476D01*
X96873866Y-82715476D02*
X97064342Y-82763095D01*
X97064342Y-82763095D02*
X97159580Y-82810714D01*
X97159580Y-82810714D02*
X97207200Y-82858333D01*
X97207200Y-82858333D02*
X97254819Y-82953571D01*
X97254819Y-82953571D02*
X97254819Y-83048809D01*
X97254819Y-83048809D02*
X97207200Y-83144047D01*
X97207200Y-83144047D02*
X97159580Y-83191666D01*
X97159580Y-83191666D02*
X97064342Y-83239285D01*
X97064342Y-83239285D02*
X96873866Y-83286904D01*
X96873866Y-83286904D02*
X96635771Y-83286904D01*
X96635771Y-83286904D02*
X96445295Y-83239285D01*
X96445295Y-83239285D02*
X96350057Y-83191666D01*
X96350057Y-83191666D02*
X96302438Y-83144047D01*
X96302438Y-83144047D02*
X96254819Y-83048809D01*
D11*
X93427409Y-85905952D02*
X93832171Y-85905952D01*
X93832171Y-85905952D02*
X93879790Y-85882142D01*
X93879790Y-85882142D02*
X93903600Y-85858333D01*
X93903600Y-85858333D02*
X93927409Y-85810714D01*
X93927409Y-85810714D02*
X93927409Y-85715476D01*
X93927409Y-85715476D02*
X93903600Y-85667857D01*
X93903600Y-85667857D02*
X93879790Y-85644047D01*
X93879790Y-85644047D02*
X93832171Y-85620238D01*
X93832171Y-85620238D02*
X93427409Y-85620238D01*
X93427409Y-85429761D02*
X93427409Y-85120237D01*
X93427409Y-85120237D02*
X93617885Y-85286904D01*
X93617885Y-85286904D02*
X93617885Y-85215475D01*
X93617885Y-85215475D02*
X93641695Y-85167856D01*
X93641695Y-85167856D02*
X93665504Y-85144047D01*
X93665504Y-85144047D02*
X93713123Y-85120237D01*
X93713123Y-85120237D02*
X93832171Y-85120237D01*
X93832171Y-85120237D02*
X93879790Y-85144047D01*
X93879790Y-85144047D02*
X93903600Y-85167856D01*
X93903600Y-85167856D02*
X93927409Y-85215475D01*
X93927409Y-85215475D02*
X93927409Y-85358332D01*
X93927409Y-85358332D02*
X93903600Y-85405951D01*
X93903600Y-85405951D02*
X93879790Y-85429761D01*
D10*
X159261904Y-88689580D02*
X159214285Y-88737200D01*
X159214285Y-88737200D02*
X159071428Y-88784819D01*
X159071428Y-88784819D02*
X158976190Y-88784819D01*
X158976190Y-88784819D02*
X158833333Y-88737200D01*
X158833333Y-88737200D02*
X158738095Y-88641961D01*
X158738095Y-88641961D02*
X158690476Y-88546723D01*
X158690476Y-88546723D02*
X158642857Y-88356247D01*
X158642857Y-88356247D02*
X158642857Y-88213390D01*
X158642857Y-88213390D02*
X158690476Y-88022914D01*
X158690476Y-88022914D02*
X158738095Y-87927676D01*
X158738095Y-87927676D02*
X158833333Y-87832438D01*
X158833333Y-87832438D02*
X158976190Y-87784819D01*
X158976190Y-87784819D02*
X159071428Y-87784819D01*
X159071428Y-87784819D02*
X159214285Y-87832438D01*
X159214285Y-87832438D02*
X159261904Y-87880057D01*
X159833333Y-88784819D02*
X159738095Y-88737200D01*
X159738095Y-88737200D02*
X159690476Y-88689580D01*
X159690476Y-88689580D02*
X159642857Y-88594342D01*
X159642857Y-88594342D02*
X159642857Y-88308628D01*
X159642857Y-88308628D02*
X159690476Y-88213390D01*
X159690476Y-88213390D02*
X159738095Y-88165771D01*
X159738095Y-88165771D02*
X159833333Y-88118152D01*
X159833333Y-88118152D02*
X159976190Y-88118152D01*
X159976190Y-88118152D02*
X160071428Y-88165771D01*
X160071428Y-88165771D02*
X160119047Y-88213390D01*
X160119047Y-88213390D02*
X160166666Y-88308628D01*
X160166666Y-88308628D02*
X160166666Y-88594342D01*
X160166666Y-88594342D02*
X160119047Y-88689580D01*
X160119047Y-88689580D02*
X160071428Y-88737200D01*
X160071428Y-88737200D02*
X159976190Y-88784819D01*
X159976190Y-88784819D02*
X159833333Y-88784819D01*
X160595238Y-88118152D02*
X160595238Y-88784819D01*
X160595238Y-88213390D02*
X160642857Y-88165771D01*
X160642857Y-88165771D02*
X160738095Y-88118152D01*
X160738095Y-88118152D02*
X160880952Y-88118152D01*
X160880952Y-88118152D02*
X160976190Y-88165771D01*
X160976190Y-88165771D02*
X161023809Y-88261009D01*
X161023809Y-88261009D02*
X161023809Y-88784819D01*
X161500000Y-88118152D02*
X161500000Y-88784819D01*
X161500000Y-88213390D02*
X161547619Y-88165771D01*
X161547619Y-88165771D02*
X161642857Y-88118152D01*
X161642857Y-88118152D02*
X161785714Y-88118152D01*
X161785714Y-88118152D02*
X161880952Y-88165771D01*
X161880952Y-88165771D02*
X161928571Y-88261009D01*
X161928571Y-88261009D02*
X161928571Y-88784819D01*
X162166667Y-88880057D02*
X162928571Y-88880057D01*
X163357143Y-87784819D02*
X163452381Y-87784819D01*
X163452381Y-87784819D02*
X163547619Y-87832438D01*
X163547619Y-87832438D02*
X163595238Y-87880057D01*
X163595238Y-87880057D02*
X163642857Y-87975295D01*
X163642857Y-87975295D02*
X163690476Y-88165771D01*
X163690476Y-88165771D02*
X163690476Y-88403866D01*
X163690476Y-88403866D02*
X163642857Y-88594342D01*
X163642857Y-88594342D02*
X163595238Y-88689580D01*
X163595238Y-88689580D02*
X163547619Y-88737200D01*
X163547619Y-88737200D02*
X163452381Y-88784819D01*
X163452381Y-88784819D02*
X163357143Y-88784819D01*
X163357143Y-88784819D02*
X163261905Y-88737200D01*
X163261905Y-88737200D02*
X163214286Y-88689580D01*
X163214286Y-88689580D02*
X163166667Y-88594342D01*
X163166667Y-88594342D02*
X163119048Y-88403866D01*
X163119048Y-88403866D02*
X163119048Y-88165771D01*
X163119048Y-88165771D02*
X163166667Y-87975295D01*
X163166667Y-87975295D02*
X163214286Y-87880057D01*
X163214286Y-87880057D02*
X163261905Y-87832438D01*
X163261905Y-87832438D02*
X163357143Y-87784819D01*
X164642857Y-88784819D02*
X164071429Y-88784819D01*
X164357143Y-88784819D02*
X164357143Y-87784819D01*
X164357143Y-87784819D02*
X164261905Y-87927676D01*
X164261905Y-87927676D02*
X164166667Y-88022914D01*
X164166667Y-88022914D02*
X164071429Y-88070533D01*
X164976191Y-88784819D02*
X165500000Y-88118152D01*
X164976191Y-88118152D02*
X165500000Y-88784819D01*
X166071429Y-87784819D02*
X166166667Y-87784819D01*
X166166667Y-87784819D02*
X166261905Y-87832438D01*
X166261905Y-87832438D02*
X166309524Y-87880057D01*
X166309524Y-87880057D02*
X166357143Y-87975295D01*
X166357143Y-87975295D02*
X166404762Y-88165771D01*
X166404762Y-88165771D02*
X166404762Y-88403866D01*
X166404762Y-88403866D02*
X166357143Y-88594342D01*
X166357143Y-88594342D02*
X166309524Y-88689580D01*
X166309524Y-88689580D02*
X166261905Y-88737200D01*
X166261905Y-88737200D02*
X166166667Y-88784819D01*
X166166667Y-88784819D02*
X166071429Y-88784819D01*
X166071429Y-88784819D02*
X165976191Y-88737200D01*
X165976191Y-88737200D02*
X165928572Y-88689580D01*
X165928572Y-88689580D02*
X165880953Y-88594342D01*
X165880953Y-88594342D02*
X165833334Y-88403866D01*
X165833334Y-88403866D02*
X165833334Y-88165771D01*
X165833334Y-88165771D02*
X165880953Y-87975295D01*
X165880953Y-87975295D02*
X165928572Y-87880057D01*
X165928572Y-87880057D02*
X165976191Y-87832438D01*
X165976191Y-87832438D02*
X166071429Y-87784819D01*
X166738096Y-87784819D02*
X167357143Y-87784819D01*
X167357143Y-87784819D02*
X167023810Y-88165771D01*
X167023810Y-88165771D02*
X167166667Y-88165771D01*
X167166667Y-88165771D02*
X167261905Y-88213390D01*
X167261905Y-88213390D02*
X167309524Y-88261009D01*
X167309524Y-88261009D02*
X167357143Y-88356247D01*
X167357143Y-88356247D02*
X167357143Y-88594342D01*
X167357143Y-88594342D02*
X167309524Y-88689580D01*
X167309524Y-88689580D02*
X167261905Y-88737200D01*
X167261905Y-88737200D02*
X167166667Y-88784819D01*
X167166667Y-88784819D02*
X166880953Y-88784819D01*
X166880953Y-88784819D02*
X166785715Y-88737200D01*
X166785715Y-88737200D02*
X166738096Y-88689580D01*
X162454819Y-83793333D02*
X163169104Y-83793333D01*
X163169104Y-83793333D02*
X163311961Y-83840952D01*
X163311961Y-83840952D02*
X163407200Y-83936190D01*
X163407200Y-83936190D02*
X163454819Y-84079047D01*
X163454819Y-84079047D02*
X163454819Y-84174285D01*
X163454819Y-82793333D02*
X163454819Y-83364761D01*
X163454819Y-83079047D02*
X162454819Y-83079047D01*
X162454819Y-83079047D02*
X162597676Y-83174285D01*
X162597676Y-83174285D02*
X162692914Y-83269523D01*
X162692914Y-83269523D02*
X162740533Y-83364761D01*
X140594761Y-96274819D02*
X140023333Y-96274819D01*
X140309047Y-96274819D02*
X140309047Y-95274819D01*
X140309047Y-95274819D02*
X140213809Y-95417676D01*
X140213809Y-95417676D02*
X140118571Y-95512914D01*
X140118571Y-95512914D02*
X140023333Y-95560533D01*
X141213809Y-95274819D02*
X141309047Y-95274819D01*
X141309047Y-95274819D02*
X141404285Y-95322438D01*
X141404285Y-95322438D02*
X141451904Y-95370057D01*
X141451904Y-95370057D02*
X141499523Y-95465295D01*
X141499523Y-95465295D02*
X141547142Y-95655771D01*
X141547142Y-95655771D02*
X141547142Y-95893866D01*
X141547142Y-95893866D02*
X141499523Y-96084342D01*
X141499523Y-96084342D02*
X141451904Y-96179580D01*
X141451904Y-96179580D02*
X141404285Y-96227200D01*
X141404285Y-96227200D02*
X141309047Y-96274819D01*
X141309047Y-96274819D02*
X141213809Y-96274819D01*
X141213809Y-96274819D02*
X141118571Y-96227200D01*
X141118571Y-96227200D02*
X141070952Y-96179580D01*
X141070952Y-96179580D02*
X141023333Y-96084342D01*
X141023333Y-96084342D02*
X140975714Y-95893866D01*
X140975714Y-95893866D02*
X140975714Y-95655771D01*
X140975714Y-95655771D02*
X141023333Y-95465295D01*
X141023333Y-95465295D02*
X141070952Y-95370057D01*
X141070952Y-95370057D02*
X141118571Y-95322438D01*
X141118571Y-95322438D02*
X141213809Y-95274819D01*
X141975714Y-96274819D02*
X141975714Y-95274819D01*
X142070952Y-95893866D02*
X142356666Y-96274819D01*
X142356666Y-95608152D02*
X141975714Y-95989104D01*
X141023333Y-93904819D02*
X140690000Y-93428628D01*
X140451905Y-93904819D02*
X140451905Y-92904819D01*
X140451905Y-92904819D02*
X140832857Y-92904819D01*
X140832857Y-92904819D02*
X140928095Y-92952438D01*
X140928095Y-92952438D02*
X140975714Y-93000057D01*
X140975714Y-93000057D02*
X141023333Y-93095295D01*
X141023333Y-93095295D02*
X141023333Y-93238152D01*
X141023333Y-93238152D02*
X140975714Y-93333390D01*
X140975714Y-93333390D02*
X140928095Y-93381009D01*
X140928095Y-93381009D02*
X140832857Y-93428628D01*
X140832857Y-93428628D02*
X140451905Y-93428628D01*
X141928095Y-92904819D02*
X141451905Y-92904819D01*
X141451905Y-92904819D02*
X141404286Y-93381009D01*
X141404286Y-93381009D02*
X141451905Y-93333390D01*
X141451905Y-93333390D02*
X141547143Y-93285771D01*
X141547143Y-93285771D02*
X141785238Y-93285771D01*
X141785238Y-93285771D02*
X141880476Y-93333390D01*
X141880476Y-93333390D02*
X141928095Y-93381009D01*
X141928095Y-93381009D02*
X141975714Y-93476247D01*
X141975714Y-93476247D02*
X141975714Y-93714342D01*
X141975714Y-93714342D02*
X141928095Y-93809580D01*
X141928095Y-93809580D02*
X141880476Y-93857200D01*
X141880476Y-93857200D02*
X141785238Y-93904819D01*
X141785238Y-93904819D02*
X141547143Y-93904819D01*
X141547143Y-93904819D02*
X141451905Y-93857200D01*
X141451905Y-93857200D02*
X141404286Y-93809580D01*
X111914286Y-72674819D02*
X112152381Y-73674819D01*
X112152381Y-73674819D02*
X112342857Y-72960533D01*
X112342857Y-72960533D02*
X112533333Y-73674819D01*
X112533333Y-73674819D02*
X112771429Y-72674819D01*
X113152381Y-73151009D02*
X113485714Y-73151009D01*
X113628571Y-73674819D02*
X113152381Y-73674819D01*
X113152381Y-73674819D02*
X113152381Y-72674819D01*
X113152381Y-72674819D02*
X113628571Y-72674819D01*
X114057143Y-73674819D02*
X114057143Y-72674819D01*
X114057143Y-72674819D02*
X114390476Y-73389104D01*
X114390476Y-73389104D02*
X114723809Y-72674819D01*
X114723809Y-72674819D02*
X114723809Y-73674819D01*
X115390476Y-72674819D02*
X115580952Y-72674819D01*
X115580952Y-72674819D02*
X115676190Y-72722438D01*
X115676190Y-72722438D02*
X115771428Y-72817676D01*
X115771428Y-72817676D02*
X115819047Y-73008152D01*
X115819047Y-73008152D02*
X115819047Y-73341485D01*
X115819047Y-73341485D02*
X115771428Y-73531961D01*
X115771428Y-73531961D02*
X115676190Y-73627200D01*
X115676190Y-73627200D02*
X115580952Y-73674819D01*
X115580952Y-73674819D02*
X115390476Y-73674819D01*
X115390476Y-73674819D02*
X115295238Y-73627200D01*
X115295238Y-73627200D02*
X115200000Y-73531961D01*
X115200000Y-73531961D02*
X115152381Y-73341485D01*
X115152381Y-73341485D02*
X115152381Y-73008152D01*
X115152381Y-73008152D02*
X115200000Y-72817676D01*
X115200000Y-72817676D02*
X115295238Y-72722438D01*
X115295238Y-72722438D02*
X115390476Y-72674819D01*
X116200000Y-73627200D02*
X116342857Y-73674819D01*
X116342857Y-73674819D02*
X116580952Y-73674819D01*
X116580952Y-73674819D02*
X116676190Y-73627200D01*
X116676190Y-73627200D02*
X116723809Y-73579580D01*
X116723809Y-73579580D02*
X116771428Y-73484342D01*
X116771428Y-73484342D02*
X116771428Y-73389104D01*
X116771428Y-73389104D02*
X116723809Y-73293866D01*
X116723809Y-73293866D02*
X116676190Y-73246247D01*
X116676190Y-73246247D02*
X116580952Y-73198628D01*
X116580952Y-73198628D02*
X116390476Y-73151009D01*
X116390476Y-73151009D02*
X116295238Y-73103390D01*
X116295238Y-73103390D02*
X116247619Y-73055771D01*
X116247619Y-73055771D02*
X116200000Y-72960533D01*
X116200000Y-72960533D02*
X116200000Y-72865295D01*
X116200000Y-72865295D02*
X116247619Y-72770057D01*
X116247619Y-72770057D02*
X116295238Y-72722438D01*
X116295238Y-72722438D02*
X116390476Y-72674819D01*
X116390476Y-72674819D02*
X116628571Y-72674819D01*
X116628571Y-72674819D02*
X116771428Y-72722438D01*
X116961905Y-73770057D02*
X117723809Y-73770057D01*
X117961905Y-73674819D02*
X117961905Y-72674819D01*
X117961905Y-72674819D02*
X118200000Y-72674819D01*
X118200000Y-72674819D02*
X118342857Y-72722438D01*
X118342857Y-72722438D02*
X118438095Y-72817676D01*
X118438095Y-72817676D02*
X118485714Y-72912914D01*
X118485714Y-72912914D02*
X118533333Y-73103390D01*
X118533333Y-73103390D02*
X118533333Y-73246247D01*
X118533333Y-73246247D02*
X118485714Y-73436723D01*
X118485714Y-73436723D02*
X118438095Y-73531961D01*
X118438095Y-73531961D02*
X118342857Y-73627200D01*
X118342857Y-73627200D02*
X118200000Y-73674819D01*
X118200000Y-73674819D02*
X117961905Y-73674819D01*
X119485714Y-73674819D02*
X118914286Y-73674819D01*
X119200000Y-73674819D02*
X119200000Y-72674819D01*
X119200000Y-72674819D02*
X119104762Y-72817676D01*
X119104762Y-72817676D02*
X119009524Y-72912914D01*
X119009524Y-72912914D02*
X118914286Y-72960533D01*
X119676191Y-73770057D02*
X120438095Y-73770057D01*
X120676191Y-73674819D02*
X120676191Y-73008152D01*
X120676191Y-73103390D02*
X120723810Y-73055771D01*
X120723810Y-73055771D02*
X120819048Y-73008152D01*
X120819048Y-73008152D02*
X120961905Y-73008152D01*
X120961905Y-73008152D02*
X121057143Y-73055771D01*
X121057143Y-73055771D02*
X121104762Y-73151009D01*
X121104762Y-73151009D02*
X121104762Y-73674819D01*
X121104762Y-73151009D02*
X121152381Y-73055771D01*
X121152381Y-73055771D02*
X121247619Y-73008152D01*
X121247619Y-73008152D02*
X121390476Y-73008152D01*
X121390476Y-73008152D02*
X121485715Y-73055771D01*
X121485715Y-73055771D02*
X121533334Y-73151009D01*
X121533334Y-73151009D02*
X121533334Y-73674819D01*
X122009524Y-73674819D02*
X122009524Y-73008152D01*
X122009524Y-72674819D02*
X121961905Y-72722438D01*
X121961905Y-72722438D02*
X122009524Y-72770057D01*
X122009524Y-72770057D02*
X122057143Y-72722438D01*
X122057143Y-72722438D02*
X122009524Y-72674819D01*
X122009524Y-72674819D02*
X122009524Y-72770057D01*
X122485714Y-73008152D02*
X122485714Y-73674819D01*
X122485714Y-73103390D02*
X122533333Y-73055771D01*
X122533333Y-73055771D02*
X122628571Y-73008152D01*
X122628571Y-73008152D02*
X122771428Y-73008152D01*
X122771428Y-73008152D02*
X122866666Y-73055771D01*
X122866666Y-73055771D02*
X122914285Y-73151009D01*
X122914285Y-73151009D02*
X122914285Y-73674819D01*
X123390476Y-73674819D02*
X123390476Y-73008152D01*
X123390476Y-72674819D02*
X123342857Y-72722438D01*
X123342857Y-72722438D02*
X123390476Y-72770057D01*
X123390476Y-72770057D02*
X123438095Y-72722438D01*
X123438095Y-72722438D02*
X123390476Y-72674819D01*
X123390476Y-72674819D02*
X123390476Y-72770057D01*
X116668095Y-82674819D02*
X116668095Y-83484342D01*
X116668095Y-83484342D02*
X116715714Y-83579580D01*
X116715714Y-83579580D02*
X116763333Y-83627200D01*
X116763333Y-83627200D02*
X116858571Y-83674819D01*
X116858571Y-83674819D02*
X117049047Y-83674819D01*
X117049047Y-83674819D02*
X117144285Y-83627200D01*
X117144285Y-83627200D02*
X117191904Y-83579580D01*
X117191904Y-83579580D02*
X117239523Y-83484342D01*
X117239523Y-83484342D02*
X117239523Y-82674819D01*
X118239523Y-83674819D02*
X117668095Y-83674819D01*
X117953809Y-83674819D02*
X117953809Y-82674819D01*
X117953809Y-82674819D02*
X117858571Y-82817676D01*
X117858571Y-82817676D02*
X117763333Y-82912914D01*
X117763333Y-82912914D02*
X117668095Y-82960533D01*
X157457142Y-120654819D02*
X156980952Y-120654819D01*
X156980952Y-120654819D02*
X156980952Y-119654819D01*
X157790476Y-120654819D02*
X157790476Y-119654819D01*
X157790476Y-119654819D02*
X158028571Y-119654819D01*
X158028571Y-119654819D02*
X158171428Y-119702438D01*
X158171428Y-119702438D02*
X158266666Y-119797676D01*
X158266666Y-119797676D02*
X158314285Y-119892914D01*
X158314285Y-119892914D02*
X158361904Y-120083390D01*
X158361904Y-120083390D02*
X158361904Y-120226247D01*
X158361904Y-120226247D02*
X158314285Y-120416723D01*
X158314285Y-120416723D02*
X158266666Y-120511961D01*
X158266666Y-120511961D02*
X158171428Y-120607200D01*
X158171428Y-120607200D02*
X158028571Y-120654819D01*
X158028571Y-120654819D02*
X157790476Y-120654819D01*
X159361904Y-120654819D02*
X159028571Y-120178628D01*
X158790476Y-120654819D02*
X158790476Y-119654819D01*
X158790476Y-119654819D02*
X159171428Y-119654819D01*
X159171428Y-119654819D02*
X159266666Y-119702438D01*
X159266666Y-119702438D02*
X159314285Y-119750057D01*
X159314285Y-119750057D02*
X159361904Y-119845295D01*
X159361904Y-119845295D02*
X159361904Y-119988152D01*
X159361904Y-119988152D02*
X159314285Y-120083390D01*
X159314285Y-120083390D02*
X159266666Y-120131009D01*
X159266666Y-120131009D02*
X159171428Y-120178628D01*
X159171428Y-120178628D02*
X158790476Y-120178628D01*
X159980952Y-119654819D02*
X160076190Y-119654819D01*
X160076190Y-119654819D02*
X160171428Y-119702438D01*
X160171428Y-119702438D02*
X160219047Y-119750057D01*
X160219047Y-119750057D02*
X160266666Y-119845295D01*
X160266666Y-119845295D02*
X160314285Y-120035771D01*
X160314285Y-120035771D02*
X160314285Y-120273866D01*
X160314285Y-120273866D02*
X160266666Y-120464342D01*
X160266666Y-120464342D02*
X160219047Y-120559580D01*
X160219047Y-120559580D02*
X160171428Y-120607200D01*
X160171428Y-120607200D02*
X160076190Y-120654819D01*
X160076190Y-120654819D02*
X159980952Y-120654819D01*
X159980952Y-120654819D02*
X159885714Y-120607200D01*
X159885714Y-120607200D02*
X159838095Y-120559580D01*
X159838095Y-120559580D02*
X159790476Y-120464342D01*
X159790476Y-120464342D02*
X159742857Y-120273866D01*
X159742857Y-120273866D02*
X159742857Y-120035771D01*
X159742857Y-120035771D02*
X159790476Y-119845295D01*
X159790476Y-119845295D02*
X159838095Y-119750057D01*
X159838095Y-119750057D02*
X159885714Y-119702438D01*
X159885714Y-119702438D02*
X159980952Y-119654819D01*
X160647619Y-119654819D02*
X161266666Y-119654819D01*
X161266666Y-119654819D02*
X160933333Y-120035771D01*
X160933333Y-120035771D02*
X161076190Y-120035771D01*
X161076190Y-120035771D02*
X161171428Y-120083390D01*
X161171428Y-120083390D02*
X161219047Y-120131009D01*
X161219047Y-120131009D02*
X161266666Y-120226247D01*
X161266666Y-120226247D02*
X161266666Y-120464342D01*
X161266666Y-120464342D02*
X161219047Y-120559580D01*
X161219047Y-120559580D02*
X161171428Y-120607200D01*
X161171428Y-120607200D02*
X161076190Y-120654819D01*
X161076190Y-120654819D02*
X160790476Y-120654819D01*
X160790476Y-120654819D02*
X160695238Y-120607200D01*
X160695238Y-120607200D02*
X160647619Y-120559580D01*
X159033333Y-112954819D02*
X158700000Y-112478628D01*
X158461905Y-112954819D02*
X158461905Y-111954819D01*
X158461905Y-111954819D02*
X158842857Y-111954819D01*
X158842857Y-111954819D02*
X158938095Y-112002438D01*
X158938095Y-112002438D02*
X158985714Y-112050057D01*
X158985714Y-112050057D02*
X159033333Y-112145295D01*
X159033333Y-112145295D02*
X159033333Y-112288152D01*
X159033333Y-112288152D02*
X158985714Y-112383390D01*
X158985714Y-112383390D02*
X158938095Y-112431009D01*
X158938095Y-112431009D02*
X158842857Y-112478628D01*
X158842857Y-112478628D02*
X158461905Y-112478628D01*
X159985714Y-112954819D02*
X159414286Y-112954819D01*
X159700000Y-112954819D02*
X159700000Y-111954819D01*
X159700000Y-111954819D02*
X159604762Y-112097676D01*
X159604762Y-112097676D02*
X159509524Y-112192914D01*
X159509524Y-112192914D02*
X159414286Y-112240533D01*
X140594761Y-92224819D02*
X140023333Y-92224819D01*
X140309047Y-92224819D02*
X140309047Y-91224819D01*
X140309047Y-91224819D02*
X140213809Y-91367676D01*
X140213809Y-91367676D02*
X140118571Y-91462914D01*
X140118571Y-91462914D02*
X140023333Y-91510533D01*
X141213809Y-91224819D02*
X141309047Y-91224819D01*
X141309047Y-91224819D02*
X141404285Y-91272438D01*
X141404285Y-91272438D02*
X141451904Y-91320057D01*
X141451904Y-91320057D02*
X141499523Y-91415295D01*
X141499523Y-91415295D02*
X141547142Y-91605771D01*
X141547142Y-91605771D02*
X141547142Y-91843866D01*
X141547142Y-91843866D02*
X141499523Y-92034342D01*
X141499523Y-92034342D02*
X141451904Y-92129580D01*
X141451904Y-92129580D02*
X141404285Y-92177200D01*
X141404285Y-92177200D02*
X141309047Y-92224819D01*
X141309047Y-92224819D02*
X141213809Y-92224819D01*
X141213809Y-92224819D02*
X141118571Y-92177200D01*
X141118571Y-92177200D02*
X141070952Y-92129580D01*
X141070952Y-92129580D02*
X141023333Y-92034342D01*
X141023333Y-92034342D02*
X140975714Y-91843866D01*
X140975714Y-91843866D02*
X140975714Y-91605771D01*
X140975714Y-91605771D02*
X141023333Y-91415295D01*
X141023333Y-91415295D02*
X141070952Y-91320057D01*
X141070952Y-91320057D02*
X141118571Y-91272438D01*
X141118571Y-91272438D02*
X141213809Y-91224819D01*
X141975714Y-92224819D02*
X141975714Y-91224819D01*
X142070952Y-91843866D02*
X142356666Y-92224819D01*
X142356666Y-91558152D02*
X141975714Y-91939104D01*
X141023333Y-89854819D02*
X140690000Y-89378628D01*
X140451905Y-89854819D02*
X140451905Y-88854819D01*
X140451905Y-88854819D02*
X140832857Y-88854819D01*
X140832857Y-88854819D02*
X140928095Y-88902438D01*
X140928095Y-88902438D02*
X140975714Y-88950057D01*
X140975714Y-88950057D02*
X141023333Y-89045295D01*
X141023333Y-89045295D02*
X141023333Y-89188152D01*
X141023333Y-89188152D02*
X140975714Y-89283390D01*
X140975714Y-89283390D02*
X140928095Y-89331009D01*
X140928095Y-89331009D02*
X140832857Y-89378628D01*
X140832857Y-89378628D02*
X140451905Y-89378628D01*
X141880476Y-89188152D02*
X141880476Y-89854819D01*
X141642381Y-88807200D02*
X141404286Y-89521485D01*
X141404286Y-89521485D02*
X142023333Y-89521485D01*
X92484819Y-114562857D02*
X92484819Y-115134285D01*
X92484819Y-114848571D02*
X91484819Y-114848571D01*
X91484819Y-114848571D02*
X91627676Y-114943809D01*
X91627676Y-114943809D02*
X91722914Y-115039047D01*
X91722914Y-115039047D02*
X91770533Y-115134285D01*
X92484819Y-114134285D02*
X91484819Y-114134285D01*
X91484819Y-114134285D02*
X92484819Y-113562857D01*
X92484819Y-113562857D02*
X91484819Y-113562857D01*
X91818152Y-112658095D02*
X92484819Y-112658095D01*
X91437200Y-112896190D02*
X92151485Y-113134285D01*
X92151485Y-113134285D02*
X92151485Y-112515238D01*
X91484819Y-111943809D02*
X91484819Y-111848571D01*
X91484819Y-111848571D02*
X91532438Y-111753333D01*
X91532438Y-111753333D02*
X91580057Y-111705714D01*
X91580057Y-111705714D02*
X91675295Y-111658095D01*
X91675295Y-111658095D02*
X91865771Y-111610476D01*
X91865771Y-111610476D02*
X92103866Y-111610476D01*
X92103866Y-111610476D02*
X92294342Y-111658095D01*
X92294342Y-111658095D02*
X92389580Y-111705714D01*
X92389580Y-111705714D02*
X92437200Y-111753333D01*
X92437200Y-111753333D02*
X92484819Y-111848571D01*
X92484819Y-111848571D02*
X92484819Y-111943809D01*
X92484819Y-111943809D02*
X92437200Y-112039047D01*
X92437200Y-112039047D02*
X92389580Y-112086666D01*
X92389580Y-112086666D02*
X92294342Y-112134285D01*
X92294342Y-112134285D02*
X92103866Y-112181904D01*
X92103866Y-112181904D02*
X91865771Y-112181904D01*
X91865771Y-112181904D02*
X91675295Y-112134285D01*
X91675295Y-112134285D02*
X91580057Y-112086666D01*
X91580057Y-112086666D02*
X91532438Y-112039047D01*
X91532438Y-112039047D02*
X91484819Y-111943809D01*
X91484819Y-110991428D02*
X91484819Y-110896190D01*
X91484819Y-110896190D02*
X91532438Y-110800952D01*
X91532438Y-110800952D02*
X91580057Y-110753333D01*
X91580057Y-110753333D02*
X91675295Y-110705714D01*
X91675295Y-110705714D02*
X91865771Y-110658095D01*
X91865771Y-110658095D02*
X92103866Y-110658095D01*
X92103866Y-110658095D02*
X92294342Y-110705714D01*
X92294342Y-110705714D02*
X92389580Y-110753333D01*
X92389580Y-110753333D02*
X92437200Y-110800952D01*
X92437200Y-110800952D02*
X92484819Y-110896190D01*
X92484819Y-110896190D02*
X92484819Y-110991428D01*
X92484819Y-110991428D02*
X92437200Y-111086666D01*
X92437200Y-111086666D02*
X92389580Y-111134285D01*
X92389580Y-111134285D02*
X92294342Y-111181904D01*
X92294342Y-111181904D02*
X92103866Y-111229523D01*
X92103866Y-111229523D02*
X91865771Y-111229523D01*
X91865771Y-111229523D02*
X91675295Y-111181904D01*
X91675295Y-111181904D02*
X91580057Y-111134285D01*
X91580057Y-111134285D02*
X91532438Y-111086666D01*
X91532438Y-111086666D02*
X91484819Y-110991428D01*
X91484819Y-110324761D02*
X91484819Y-109658095D01*
X91484819Y-109658095D02*
X92484819Y-110086666D01*
X97054819Y-107601904D02*
X96054819Y-107601904D01*
X97054819Y-107030476D02*
X96483390Y-107459047D01*
X96054819Y-107030476D02*
X96626247Y-107601904D01*
X94954819Y-113548094D02*
X93954819Y-113548094D01*
X93954819Y-113548094D02*
X93954819Y-113309999D01*
X93954819Y-113309999D02*
X94002438Y-113167142D01*
X94002438Y-113167142D02*
X94097676Y-113071904D01*
X94097676Y-113071904D02*
X94192914Y-113024285D01*
X94192914Y-113024285D02*
X94383390Y-112976666D01*
X94383390Y-112976666D02*
X94526247Y-112976666D01*
X94526247Y-112976666D02*
X94716723Y-113024285D01*
X94716723Y-113024285D02*
X94811961Y-113071904D01*
X94811961Y-113071904D02*
X94907200Y-113167142D01*
X94907200Y-113167142D02*
X94954819Y-113309999D01*
X94954819Y-113309999D02*
X94954819Y-113548094D01*
X94954819Y-112024285D02*
X94954819Y-112595713D01*
X94954819Y-112309999D02*
X93954819Y-112309999D01*
X93954819Y-112309999D02*
X94097676Y-112405237D01*
X94097676Y-112405237D02*
X94192914Y-112500475D01*
X94192914Y-112500475D02*
X94240533Y-112595713D01*
X140714761Y-85324819D02*
X140143333Y-85324819D01*
X140429047Y-85324819D02*
X140429047Y-84324819D01*
X140429047Y-84324819D02*
X140333809Y-84467676D01*
X140333809Y-84467676D02*
X140238571Y-84562914D01*
X140238571Y-84562914D02*
X140143333Y-84610533D01*
X141333809Y-84324819D02*
X141429047Y-84324819D01*
X141429047Y-84324819D02*
X141524285Y-84372438D01*
X141524285Y-84372438D02*
X141571904Y-84420057D01*
X141571904Y-84420057D02*
X141619523Y-84515295D01*
X141619523Y-84515295D02*
X141667142Y-84705771D01*
X141667142Y-84705771D02*
X141667142Y-84943866D01*
X141667142Y-84943866D02*
X141619523Y-85134342D01*
X141619523Y-85134342D02*
X141571904Y-85229580D01*
X141571904Y-85229580D02*
X141524285Y-85277200D01*
X141524285Y-85277200D02*
X141429047Y-85324819D01*
X141429047Y-85324819D02*
X141333809Y-85324819D01*
X141333809Y-85324819D02*
X141238571Y-85277200D01*
X141238571Y-85277200D02*
X141190952Y-85229580D01*
X141190952Y-85229580D02*
X141143333Y-85134342D01*
X141143333Y-85134342D02*
X141095714Y-84943866D01*
X141095714Y-84943866D02*
X141095714Y-84705771D01*
X141095714Y-84705771D02*
X141143333Y-84515295D01*
X141143333Y-84515295D02*
X141190952Y-84420057D01*
X141190952Y-84420057D02*
X141238571Y-84372438D01*
X141238571Y-84372438D02*
X141333809Y-84324819D01*
X142095714Y-85324819D02*
X142095714Y-84324819D01*
X142190952Y-84943866D02*
X142476666Y-85324819D01*
X142476666Y-84658152D02*
X142095714Y-85039104D01*
X141143333Y-82954819D02*
X140810000Y-82478628D01*
X140571905Y-82954819D02*
X140571905Y-81954819D01*
X140571905Y-81954819D02*
X140952857Y-81954819D01*
X140952857Y-81954819D02*
X141048095Y-82002438D01*
X141048095Y-82002438D02*
X141095714Y-82050057D01*
X141095714Y-82050057D02*
X141143333Y-82145295D01*
X141143333Y-82145295D02*
X141143333Y-82288152D01*
X141143333Y-82288152D02*
X141095714Y-82383390D01*
X141095714Y-82383390D02*
X141048095Y-82431009D01*
X141048095Y-82431009D02*
X140952857Y-82478628D01*
X140952857Y-82478628D02*
X140571905Y-82478628D01*
X141524286Y-82050057D02*
X141571905Y-82002438D01*
X141571905Y-82002438D02*
X141667143Y-81954819D01*
X141667143Y-81954819D02*
X141905238Y-81954819D01*
X141905238Y-81954819D02*
X142000476Y-82002438D01*
X142000476Y-82002438D02*
X142048095Y-82050057D01*
X142048095Y-82050057D02*
X142095714Y-82145295D01*
X142095714Y-82145295D02*
X142095714Y-82240533D01*
X142095714Y-82240533D02*
X142048095Y-82383390D01*
X142048095Y-82383390D02*
X141476667Y-82954819D01*
X141476667Y-82954819D02*
X142095714Y-82954819D01*
X125928571Y-120454819D02*
X125357143Y-120454819D01*
X125642857Y-120454819D02*
X125642857Y-119454819D01*
X125642857Y-119454819D02*
X125547619Y-119597676D01*
X125547619Y-119597676D02*
X125452381Y-119692914D01*
X125452381Y-119692914D02*
X125357143Y-119740533D01*
X126547619Y-119454819D02*
X126642857Y-119454819D01*
X126642857Y-119454819D02*
X126738095Y-119502438D01*
X126738095Y-119502438D02*
X126785714Y-119550057D01*
X126785714Y-119550057D02*
X126833333Y-119645295D01*
X126833333Y-119645295D02*
X126880952Y-119835771D01*
X126880952Y-119835771D02*
X126880952Y-120073866D01*
X126880952Y-120073866D02*
X126833333Y-120264342D01*
X126833333Y-120264342D02*
X126785714Y-120359580D01*
X126785714Y-120359580D02*
X126738095Y-120407200D01*
X126738095Y-120407200D02*
X126642857Y-120454819D01*
X126642857Y-120454819D02*
X126547619Y-120454819D01*
X126547619Y-120454819D02*
X126452381Y-120407200D01*
X126452381Y-120407200D02*
X126404762Y-120359580D01*
X126404762Y-120359580D02*
X126357143Y-120264342D01*
X126357143Y-120264342D02*
X126309524Y-120073866D01*
X126309524Y-120073866D02*
X126309524Y-119835771D01*
X126309524Y-119835771D02*
X126357143Y-119645295D01*
X126357143Y-119645295D02*
X126404762Y-119550057D01*
X126404762Y-119550057D02*
X126452381Y-119502438D01*
X126452381Y-119502438D02*
X126547619Y-119454819D01*
X127738095Y-119788152D02*
X127738095Y-120454819D01*
X127309524Y-119788152D02*
X127309524Y-120311961D01*
X127309524Y-120311961D02*
X127357143Y-120407200D01*
X127357143Y-120407200D02*
X127452381Y-120454819D01*
X127452381Y-120454819D02*
X127595238Y-120454819D01*
X127595238Y-120454819D02*
X127690476Y-120407200D01*
X127690476Y-120407200D02*
X127738095Y-120359580D01*
X128547619Y-119931009D02*
X128214286Y-119931009D01*
X128214286Y-120454819D02*
X128214286Y-119454819D01*
X128214286Y-119454819D02*
X128690476Y-119454819D01*
X126833333Y-117859580D02*
X126785714Y-117907200D01*
X126785714Y-117907200D02*
X126642857Y-117954819D01*
X126642857Y-117954819D02*
X126547619Y-117954819D01*
X126547619Y-117954819D02*
X126404762Y-117907200D01*
X126404762Y-117907200D02*
X126309524Y-117811961D01*
X126309524Y-117811961D02*
X126261905Y-117716723D01*
X126261905Y-117716723D02*
X126214286Y-117526247D01*
X126214286Y-117526247D02*
X126214286Y-117383390D01*
X126214286Y-117383390D02*
X126261905Y-117192914D01*
X126261905Y-117192914D02*
X126309524Y-117097676D01*
X126309524Y-117097676D02*
X126404762Y-117002438D01*
X126404762Y-117002438D02*
X126547619Y-116954819D01*
X126547619Y-116954819D02*
X126642857Y-116954819D01*
X126642857Y-116954819D02*
X126785714Y-117002438D01*
X126785714Y-117002438D02*
X126833333Y-117050057D01*
X127214286Y-117050057D02*
X127261905Y-117002438D01*
X127261905Y-117002438D02*
X127357143Y-116954819D01*
X127357143Y-116954819D02*
X127595238Y-116954819D01*
X127595238Y-116954819D02*
X127690476Y-117002438D01*
X127690476Y-117002438D02*
X127738095Y-117050057D01*
X127738095Y-117050057D02*
X127785714Y-117145295D01*
X127785714Y-117145295D02*
X127785714Y-117240533D01*
X127785714Y-117240533D02*
X127738095Y-117383390D01*
X127738095Y-117383390D02*
X127166667Y-117954819D01*
X127166667Y-117954819D02*
X127785714Y-117954819D01*
X159261904Y-64909580D02*
X159214285Y-64957200D01*
X159214285Y-64957200D02*
X159071428Y-65004819D01*
X159071428Y-65004819D02*
X158976190Y-65004819D01*
X158976190Y-65004819D02*
X158833333Y-64957200D01*
X158833333Y-64957200D02*
X158738095Y-64861961D01*
X158738095Y-64861961D02*
X158690476Y-64766723D01*
X158690476Y-64766723D02*
X158642857Y-64576247D01*
X158642857Y-64576247D02*
X158642857Y-64433390D01*
X158642857Y-64433390D02*
X158690476Y-64242914D01*
X158690476Y-64242914D02*
X158738095Y-64147676D01*
X158738095Y-64147676D02*
X158833333Y-64052438D01*
X158833333Y-64052438D02*
X158976190Y-64004819D01*
X158976190Y-64004819D02*
X159071428Y-64004819D01*
X159071428Y-64004819D02*
X159214285Y-64052438D01*
X159214285Y-64052438D02*
X159261904Y-64100057D01*
X159833333Y-65004819D02*
X159738095Y-64957200D01*
X159738095Y-64957200D02*
X159690476Y-64909580D01*
X159690476Y-64909580D02*
X159642857Y-64814342D01*
X159642857Y-64814342D02*
X159642857Y-64528628D01*
X159642857Y-64528628D02*
X159690476Y-64433390D01*
X159690476Y-64433390D02*
X159738095Y-64385771D01*
X159738095Y-64385771D02*
X159833333Y-64338152D01*
X159833333Y-64338152D02*
X159976190Y-64338152D01*
X159976190Y-64338152D02*
X160071428Y-64385771D01*
X160071428Y-64385771D02*
X160119047Y-64433390D01*
X160119047Y-64433390D02*
X160166666Y-64528628D01*
X160166666Y-64528628D02*
X160166666Y-64814342D01*
X160166666Y-64814342D02*
X160119047Y-64909580D01*
X160119047Y-64909580D02*
X160071428Y-64957200D01*
X160071428Y-64957200D02*
X159976190Y-65004819D01*
X159976190Y-65004819D02*
X159833333Y-65004819D01*
X160595238Y-64338152D02*
X160595238Y-65004819D01*
X160595238Y-64433390D02*
X160642857Y-64385771D01*
X160642857Y-64385771D02*
X160738095Y-64338152D01*
X160738095Y-64338152D02*
X160880952Y-64338152D01*
X160880952Y-64338152D02*
X160976190Y-64385771D01*
X160976190Y-64385771D02*
X161023809Y-64481009D01*
X161023809Y-64481009D02*
X161023809Y-65004819D01*
X161500000Y-64338152D02*
X161500000Y-65004819D01*
X161500000Y-64433390D02*
X161547619Y-64385771D01*
X161547619Y-64385771D02*
X161642857Y-64338152D01*
X161642857Y-64338152D02*
X161785714Y-64338152D01*
X161785714Y-64338152D02*
X161880952Y-64385771D01*
X161880952Y-64385771D02*
X161928571Y-64481009D01*
X161928571Y-64481009D02*
X161928571Y-65004819D01*
X162166667Y-65100057D02*
X162928571Y-65100057D01*
X163357143Y-64004819D02*
X163452381Y-64004819D01*
X163452381Y-64004819D02*
X163547619Y-64052438D01*
X163547619Y-64052438D02*
X163595238Y-64100057D01*
X163595238Y-64100057D02*
X163642857Y-64195295D01*
X163642857Y-64195295D02*
X163690476Y-64385771D01*
X163690476Y-64385771D02*
X163690476Y-64623866D01*
X163690476Y-64623866D02*
X163642857Y-64814342D01*
X163642857Y-64814342D02*
X163595238Y-64909580D01*
X163595238Y-64909580D02*
X163547619Y-64957200D01*
X163547619Y-64957200D02*
X163452381Y-65004819D01*
X163452381Y-65004819D02*
X163357143Y-65004819D01*
X163357143Y-65004819D02*
X163261905Y-64957200D01*
X163261905Y-64957200D02*
X163214286Y-64909580D01*
X163214286Y-64909580D02*
X163166667Y-64814342D01*
X163166667Y-64814342D02*
X163119048Y-64623866D01*
X163119048Y-64623866D02*
X163119048Y-64385771D01*
X163119048Y-64385771D02*
X163166667Y-64195295D01*
X163166667Y-64195295D02*
X163214286Y-64100057D01*
X163214286Y-64100057D02*
X163261905Y-64052438D01*
X163261905Y-64052438D02*
X163357143Y-64004819D01*
X164642857Y-65004819D02*
X164071429Y-65004819D01*
X164357143Y-65004819D02*
X164357143Y-64004819D01*
X164357143Y-64004819D02*
X164261905Y-64147676D01*
X164261905Y-64147676D02*
X164166667Y-64242914D01*
X164166667Y-64242914D02*
X164071429Y-64290533D01*
X164976191Y-65004819D02*
X165500000Y-64338152D01*
X164976191Y-64338152D02*
X165500000Y-65004819D01*
X166071429Y-64004819D02*
X166166667Y-64004819D01*
X166166667Y-64004819D02*
X166261905Y-64052438D01*
X166261905Y-64052438D02*
X166309524Y-64100057D01*
X166309524Y-64100057D02*
X166357143Y-64195295D01*
X166357143Y-64195295D02*
X166404762Y-64385771D01*
X166404762Y-64385771D02*
X166404762Y-64623866D01*
X166404762Y-64623866D02*
X166357143Y-64814342D01*
X166357143Y-64814342D02*
X166309524Y-64909580D01*
X166309524Y-64909580D02*
X166261905Y-64957200D01*
X166261905Y-64957200D02*
X166166667Y-65004819D01*
X166166667Y-65004819D02*
X166071429Y-65004819D01*
X166071429Y-65004819D02*
X165976191Y-64957200D01*
X165976191Y-64957200D02*
X165928572Y-64909580D01*
X165928572Y-64909580D02*
X165880953Y-64814342D01*
X165880953Y-64814342D02*
X165833334Y-64623866D01*
X165833334Y-64623866D02*
X165833334Y-64385771D01*
X165833334Y-64385771D02*
X165880953Y-64195295D01*
X165880953Y-64195295D02*
X165928572Y-64100057D01*
X165928572Y-64100057D02*
X165976191Y-64052438D01*
X165976191Y-64052438D02*
X166071429Y-64004819D01*
X167261905Y-64338152D02*
X167261905Y-65004819D01*
X167023810Y-63957200D02*
X166785715Y-64671485D01*
X166785715Y-64671485D02*
X167404762Y-64671485D01*
X162454819Y-71023333D02*
X163169104Y-71023333D01*
X163169104Y-71023333D02*
X163311961Y-71070952D01*
X163311961Y-71070952D02*
X163407200Y-71166190D01*
X163407200Y-71166190D02*
X163454819Y-71309047D01*
X163454819Y-71309047D02*
X163454819Y-71404285D01*
X162788152Y-70118571D02*
X163454819Y-70118571D01*
X162407200Y-70356666D02*
X163121485Y-70594761D01*
X163121485Y-70594761D02*
X163121485Y-69975714D01*
X140284523Y-119949819D02*
X139808333Y-119949819D01*
X139808333Y-119949819D02*
X139808333Y-118949819D01*
X140617857Y-119949819D02*
X140617857Y-118949819D01*
X140617857Y-118949819D02*
X140951190Y-119664104D01*
X140951190Y-119664104D02*
X141284523Y-118949819D01*
X141284523Y-118949819D02*
X141284523Y-119949819D01*
X141665476Y-118949819D02*
X142284523Y-118949819D01*
X142284523Y-118949819D02*
X141951190Y-119330771D01*
X141951190Y-119330771D02*
X142094047Y-119330771D01*
X142094047Y-119330771D02*
X142189285Y-119378390D01*
X142189285Y-119378390D02*
X142236904Y-119426009D01*
X142236904Y-119426009D02*
X142284523Y-119521247D01*
X142284523Y-119521247D02*
X142284523Y-119759342D01*
X142284523Y-119759342D02*
X142236904Y-119854580D01*
X142236904Y-119854580D02*
X142189285Y-119902200D01*
X142189285Y-119902200D02*
X142094047Y-119949819D01*
X142094047Y-119949819D02*
X141808333Y-119949819D01*
X141808333Y-119949819D02*
X141713095Y-119902200D01*
X141713095Y-119902200D02*
X141665476Y-119854580D01*
X142760714Y-119949819D02*
X142951190Y-119949819D01*
X142951190Y-119949819D02*
X143046428Y-119902200D01*
X143046428Y-119902200D02*
X143094047Y-119854580D01*
X143094047Y-119854580D02*
X143189285Y-119711723D01*
X143189285Y-119711723D02*
X143236904Y-119521247D01*
X143236904Y-119521247D02*
X143236904Y-119140295D01*
X143236904Y-119140295D02*
X143189285Y-119045057D01*
X143189285Y-119045057D02*
X143141666Y-118997438D01*
X143141666Y-118997438D02*
X143046428Y-118949819D01*
X143046428Y-118949819D02*
X142855952Y-118949819D01*
X142855952Y-118949819D02*
X142760714Y-118997438D01*
X142760714Y-118997438D02*
X142713095Y-119045057D01*
X142713095Y-119045057D02*
X142665476Y-119140295D01*
X142665476Y-119140295D02*
X142665476Y-119378390D01*
X142665476Y-119378390D02*
X142713095Y-119473628D01*
X142713095Y-119473628D02*
X142760714Y-119521247D01*
X142760714Y-119521247D02*
X142855952Y-119568866D01*
X142855952Y-119568866D02*
X143046428Y-119568866D01*
X143046428Y-119568866D02*
X143141666Y-119521247D01*
X143141666Y-119521247D02*
X143189285Y-119473628D01*
X143189285Y-119473628D02*
X143236904Y-119378390D01*
X143570238Y-118949819D02*
X144189285Y-118949819D01*
X144189285Y-118949819D02*
X143855952Y-119330771D01*
X143855952Y-119330771D02*
X143998809Y-119330771D01*
X143998809Y-119330771D02*
X144094047Y-119378390D01*
X144094047Y-119378390D02*
X144141666Y-119426009D01*
X144141666Y-119426009D02*
X144189285Y-119521247D01*
X144189285Y-119521247D02*
X144189285Y-119759342D01*
X144189285Y-119759342D02*
X144141666Y-119854580D01*
X144141666Y-119854580D02*
X144094047Y-119902200D01*
X144094047Y-119902200D02*
X143998809Y-119949819D01*
X143998809Y-119949819D02*
X143713095Y-119949819D01*
X143713095Y-119949819D02*
X143617857Y-119902200D01*
X143617857Y-119902200D02*
X143570238Y-119854580D01*
X141228333Y-115560566D02*
X141228333Y-116353900D01*
X141228333Y-116353900D02*
X141275000Y-116447233D01*
X141275000Y-116447233D02*
X141321666Y-116493900D01*
X141321666Y-116493900D02*
X141415000Y-116540566D01*
X141415000Y-116540566D02*
X141601666Y-116540566D01*
X141601666Y-116540566D02*
X141695000Y-116493900D01*
X141695000Y-116493900D02*
X141741666Y-116447233D01*
X141741666Y-116447233D02*
X141788333Y-116353900D01*
X141788333Y-116353900D02*
X141788333Y-115560566D01*
X142675000Y-115887233D02*
X142675000Y-116540566D01*
X142441667Y-115513900D02*
X142208333Y-116213900D01*
X142208333Y-116213900D02*
X142815000Y-116213900D01*
X159261904Y-90489580D02*
X159214285Y-90537200D01*
X159214285Y-90537200D02*
X159071428Y-90584819D01*
X159071428Y-90584819D02*
X158976190Y-90584819D01*
X158976190Y-90584819D02*
X158833333Y-90537200D01*
X158833333Y-90537200D02*
X158738095Y-90441961D01*
X158738095Y-90441961D02*
X158690476Y-90346723D01*
X158690476Y-90346723D02*
X158642857Y-90156247D01*
X158642857Y-90156247D02*
X158642857Y-90013390D01*
X158642857Y-90013390D02*
X158690476Y-89822914D01*
X158690476Y-89822914D02*
X158738095Y-89727676D01*
X158738095Y-89727676D02*
X158833333Y-89632438D01*
X158833333Y-89632438D02*
X158976190Y-89584819D01*
X158976190Y-89584819D02*
X159071428Y-89584819D01*
X159071428Y-89584819D02*
X159214285Y-89632438D01*
X159214285Y-89632438D02*
X159261904Y-89680057D01*
X159833333Y-90584819D02*
X159738095Y-90537200D01*
X159738095Y-90537200D02*
X159690476Y-90489580D01*
X159690476Y-90489580D02*
X159642857Y-90394342D01*
X159642857Y-90394342D02*
X159642857Y-90108628D01*
X159642857Y-90108628D02*
X159690476Y-90013390D01*
X159690476Y-90013390D02*
X159738095Y-89965771D01*
X159738095Y-89965771D02*
X159833333Y-89918152D01*
X159833333Y-89918152D02*
X159976190Y-89918152D01*
X159976190Y-89918152D02*
X160071428Y-89965771D01*
X160071428Y-89965771D02*
X160119047Y-90013390D01*
X160119047Y-90013390D02*
X160166666Y-90108628D01*
X160166666Y-90108628D02*
X160166666Y-90394342D01*
X160166666Y-90394342D02*
X160119047Y-90489580D01*
X160119047Y-90489580D02*
X160071428Y-90537200D01*
X160071428Y-90537200D02*
X159976190Y-90584819D01*
X159976190Y-90584819D02*
X159833333Y-90584819D01*
X160595238Y-89918152D02*
X160595238Y-90584819D01*
X160595238Y-90013390D02*
X160642857Y-89965771D01*
X160642857Y-89965771D02*
X160738095Y-89918152D01*
X160738095Y-89918152D02*
X160880952Y-89918152D01*
X160880952Y-89918152D02*
X160976190Y-89965771D01*
X160976190Y-89965771D02*
X161023809Y-90061009D01*
X161023809Y-90061009D02*
X161023809Y-90584819D01*
X161500000Y-89918152D02*
X161500000Y-90584819D01*
X161500000Y-90013390D02*
X161547619Y-89965771D01*
X161547619Y-89965771D02*
X161642857Y-89918152D01*
X161642857Y-89918152D02*
X161785714Y-89918152D01*
X161785714Y-89918152D02*
X161880952Y-89965771D01*
X161880952Y-89965771D02*
X161928571Y-90061009D01*
X161928571Y-90061009D02*
X161928571Y-90584819D01*
X162166667Y-90680057D02*
X162928571Y-90680057D01*
X163357143Y-89584819D02*
X163452381Y-89584819D01*
X163452381Y-89584819D02*
X163547619Y-89632438D01*
X163547619Y-89632438D02*
X163595238Y-89680057D01*
X163595238Y-89680057D02*
X163642857Y-89775295D01*
X163642857Y-89775295D02*
X163690476Y-89965771D01*
X163690476Y-89965771D02*
X163690476Y-90203866D01*
X163690476Y-90203866D02*
X163642857Y-90394342D01*
X163642857Y-90394342D02*
X163595238Y-90489580D01*
X163595238Y-90489580D02*
X163547619Y-90537200D01*
X163547619Y-90537200D02*
X163452381Y-90584819D01*
X163452381Y-90584819D02*
X163357143Y-90584819D01*
X163357143Y-90584819D02*
X163261905Y-90537200D01*
X163261905Y-90537200D02*
X163214286Y-90489580D01*
X163214286Y-90489580D02*
X163166667Y-90394342D01*
X163166667Y-90394342D02*
X163119048Y-90203866D01*
X163119048Y-90203866D02*
X163119048Y-89965771D01*
X163119048Y-89965771D02*
X163166667Y-89775295D01*
X163166667Y-89775295D02*
X163214286Y-89680057D01*
X163214286Y-89680057D02*
X163261905Y-89632438D01*
X163261905Y-89632438D02*
X163357143Y-89584819D01*
X164642857Y-90584819D02*
X164071429Y-90584819D01*
X164357143Y-90584819D02*
X164357143Y-89584819D01*
X164357143Y-89584819D02*
X164261905Y-89727676D01*
X164261905Y-89727676D02*
X164166667Y-89822914D01*
X164166667Y-89822914D02*
X164071429Y-89870533D01*
X164976191Y-90584819D02*
X165500000Y-89918152D01*
X164976191Y-89918152D02*
X165500000Y-90584819D01*
X166071429Y-89584819D02*
X166166667Y-89584819D01*
X166166667Y-89584819D02*
X166261905Y-89632438D01*
X166261905Y-89632438D02*
X166309524Y-89680057D01*
X166309524Y-89680057D02*
X166357143Y-89775295D01*
X166357143Y-89775295D02*
X166404762Y-89965771D01*
X166404762Y-89965771D02*
X166404762Y-90203866D01*
X166404762Y-90203866D02*
X166357143Y-90394342D01*
X166357143Y-90394342D02*
X166309524Y-90489580D01*
X166309524Y-90489580D02*
X166261905Y-90537200D01*
X166261905Y-90537200D02*
X166166667Y-90584819D01*
X166166667Y-90584819D02*
X166071429Y-90584819D01*
X166071429Y-90584819D02*
X165976191Y-90537200D01*
X165976191Y-90537200D02*
X165928572Y-90489580D01*
X165928572Y-90489580D02*
X165880953Y-90394342D01*
X165880953Y-90394342D02*
X165833334Y-90203866D01*
X165833334Y-90203866D02*
X165833334Y-89965771D01*
X165833334Y-89965771D02*
X165880953Y-89775295D01*
X165880953Y-89775295D02*
X165928572Y-89680057D01*
X165928572Y-89680057D02*
X165976191Y-89632438D01*
X165976191Y-89632438D02*
X166071429Y-89584819D01*
X166785715Y-89680057D02*
X166833334Y-89632438D01*
X166833334Y-89632438D02*
X166928572Y-89584819D01*
X166928572Y-89584819D02*
X167166667Y-89584819D01*
X167166667Y-89584819D02*
X167261905Y-89632438D01*
X167261905Y-89632438D02*
X167309524Y-89680057D01*
X167309524Y-89680057D02*
X167357143Y-89775295D01*
X167357143Y-89775295D02*
X167357143Y-89870533D01*
X167357143Y-89870533D02*
X167309524Y-90013390D01*
X167309524Y-90013390D02*
X166738096Y-90584819D01*
X166738096Y-90584819D02*
X167357143Y-90584819D01*
X162454819Y-94063333D02*
X163169104Y-94063333D01*
X163169104Y-94063333D02*
X163311961Y-94110952D01*
X163311961Y-94110952D02*
X163407200Y-94206190D01*
X163407200Y-94206190D02*
X163454819Y-94349047D01*
X163454819Y-94349047D02*
X163454819Y-94444285D01*
X162550057Y-93634761D02*
X162502438Y-93587142D01*
X162502438Y-93587142D02*
X162454819Y-93491904D01*
X162454819Y-93491904D02*
X162454819Y-93253809D01*
X162454819Y-93253809D02*
X162502438Y-93158571D01*
X162502438Y-93158571D02*
X162550057Y-93110952D01*
X162550057Y-93110952D02*
X162645295Y-93063333D01*
X162645295Y-93063333D02*
X162740533Y-93063333D01*
X162740533Y-93063333D02*
X162883390Y-93110952D01*
X162883390Y-93110952D02*
X163454819Y-93682380D01*
X163454819Y-93682380D02*
X163454819Y-93063333D01*
X125928571Y-113954819D02*
X125357143Y-113954819D01*
X125642857Y-113954819D02*
X125642857Y-112954819D01*
X125642857Y-112954819D02*
X125547619Y-113097676D01*
X125547619Y-113097676D02*
X125452381Y-113192914D01*
X125452381Y-113192914D02*
X125357143Y-113240533D01*
X126547619Y-112954819D02*
X126642857Y-112954819D01*
X126642857Y-112954819D02*
X126738095Y-113002438D01*
X126738095Y-113002438D02*
X126785714Y-113050057D01*
X126785714Y-113050057D02*
X126833333Y-113145295D01*
X126833333Y-113145295D02*
X126880952Y-113335771D01*
X126880952Y-113335771D02*
X126880952Y-113573866D01*
X126880952Y-113573866D02*
X126833333Y-113764342D01*
X126833333Y-113764342D02*
X126785714Y-113859580D01*
X126785714Y-113859580D02*
X126738095Y-113907200D01*
X126738095Y-113907200D02*
X126642857Y-113954819D01*
X126642857Y-113954819D02*
X126547619Y-113954819D01*
X126547619Y-113954819D02*
X126452381Y-113907200D01*
X126452381Y-113907200D02*
X126404762Y-113859580D01*
X126404762Y-113859580D02*
X126357143Y-113764342D01*
X126357143Y-113764342D02*
X126309524Y-113573866D01*
X126309524Y-113573866D02*
X126309524Y-113335771D01*
X126309524Y-113335771D02*
X126357143Y-113145295D01*
X126357143Y-113145295D02*
X126404762Y-113050057D01*
X126404762Y-113050057D02*
X126452381Y-113002438D01*
X126452381Y-113002438D02*
X126547619Y-112954819D01*
X127738095Y-113288152D02*
X127738095Y-113954819D01*
X127309524Y-113288152D02*
X127309524Y-113811961D01*
X127309524Y-113811961D02*
X127357143Y-113907200D01*
X127357143Y-113907200D02*
X127452381Y-113954819D01*
X127452381Y-113954819D02*
X127595238Y-113954819D01*
X127595238Y-113954819D02*
X127690476Y-113907200D01*
X127690476Y-113907200D02*
X127738095Y-113859580D01*
X128547619Y-113431009D02*
X128214286Y-113431009D01*
X128214286Y-113954819D02*
X128214286Y-112954819D01*
X128214286Y-112954819D02*
X128690476Y-112954819D01*
X126833333Y-111359580D02*
X126785714Y-111407200D01*
X126785714Y-111407200D02*
X126642857Y-111454819D01*
X126642857Y-111454819D02*
X126547619Y-111454819D01*
X126547619Y-111454819D02*
X126404762Y-111407200D01*
X126404762Y-111407200D02*
X126309524Y-111311961D01*
X126309524Y-111311961D02*
X126261905Y-111216723D01*
X126261905Y-111216723D02*
X126214286Y-111026247D01*
X126214286Y-111026247D02*
X126214286Y-110883390D01*
X126214286Y-110883390D02*
X126261905Y-110692914D01*
X126261905Y-110692914D02*
X126309524Y-110597676D01*
X126309524Y-110597676D02*
X126404762Y-110502438D01*
X126404762Y-110502438D02*
X126547619Y-110454819D01*
X126547619Y-110454819D02*
X126642857Y-110454819D01*
X126642857Y-110454819D02*
X126785714Y-110502438D01*
X126785714Y-110502438D02*
X126833333Y-110550057D01*
X127785714Y-111454819D02*
X127214286Y-111454819D01*
X127500000Y-111454819D02*
X127500000Y-110454819D01*
X127500000Y-110454819D02*
X127404762Y-110597676D01*
X127404762Y-110597676D02*
X127309524Y-110692914D01*
X127309524Y-110692914D02*
X127214286Y-110740533D01*
X140594761Y-100324819D02*
X140023333Y-100324819D01*
X140309047Y-100324819D02*
X140309047Y-99324819D01*
X140309047Y-99324819D02*
X140213809Y-99467676D01*
X140213809Y-99467676D02*
X140118571Y-99562914D01*
X140118571Y-99562914D02*
X140023333Y-99610533D01*
X141213809Y-99324819D02*
X141309047Y-99324819D01*
X141309047Y-99324819D02*
X141404285Y-99372438D01*
X141404285Y-99372438D02*
X141451904Y-99420057D01*
X141451904Y-99420057D02*
X141499523Y-99515295D01*
X141499523Y-99515295D02*
X141547142Y-99705771D01*
X141547142Y-99705771D02*
X141547142Y-99943866D01*
X141547142Y-99943866D02*
X141499523Y-100134342D01*
X141499523Y-100134342D02*
X141451904Y-100229580D01*
X141451904Y-100229580D02*
X141404285Y-100277200D01*
X141404285Y-100277200D02*
X141309047Y-100324819D01*
X141309047Y-100324819D02*
X141213809Y-100324819D01*
X141213809Y-100324819D02*
X141118571Y-100277200D01*
X141118571Y-100277200D02*
X141070952Y-100229580D01*
X141070952Y-100229580D02*
X141023333Y-100134342D01*
X141023333Y-100134342D02*
X140975714Y-99943866D01*
X140975714Y-99943866D02*
X140975714Y-99705771D01*
X140975714Y-99705771D02*
X141023333Y-99515295D01*
X141023333Y-99515295D02*
X141070952Y-99420057D01*
X141070952Y-99420057D02*
X141118571Y-99372438D01*
X141118571Y-99372438D02*
X141213809Y-99324819D01*
X141975714Y-100324819D02*
X141975714Y-99324819D01*
X142070952Y-99943866D02*
X142356666Y-100324819D01*
X142356666Y-99658152D02*
X141975714Y-100039104D01*
X141023333Y-97954819D02*
X140690000Y-97478628D01*
X140451905Y-97954819D02*
X140451905Y-96954819D01*
X140451905Y-96954819D02*
X140832857Y-96954819D01*
X140832857Y-96954819D02*
X140928095Y-97002438D01*
X140928095Y-97002438D02*
X140975714Y-97050057D01*
X140975714Y-97050057D02*
X141023333Y-97145295D01*
X141023333Y-97145295D02*
X141023333Y-97288152D01*
X141023333Y-97288152D02*
X140975714Y-97383390D01*
X140975714Y-97383390D02*
X140928095Y-97431009D01*
X140928095Y-97431009D02*
X140832857Y-97478628D01*
X140832857Y-97478628D02*
X140451905Y-97478628D01*
X141880476Y-96954819D02*
X141690000Y-96954819D01*
X141690000Y-96954819D02*
X141594762Y-97002438D01*
X141594762Y-97002438D02*
X141547143Y-97050057D01*
X141547143Y-97050057D02*
X141451905Y-97192914D01*
X141451905Y-97192914D02*
X141404286Y-97383390D01*
X141404286Y-97383390D02*
X141404286Y-97764342D01*
X141404286Y-97764342D02*
X141451905Y-97859580D01*
X141451905Y-97859580D02*
X141499524Y-97907200D01*
X141499524Y-97907200D02*
X141594762Y-97954819D01*
X141594762Y-97954819D02*
X141785238Y-97954819D01*
X141785238Y-97954819D02*
X141880476Y-97907200D01*
X141880476Y-97907200D02*
X141928095Y-97859580D01*
X141928095Y-97859580D02*
X141975714Y-97764342D01*
X141975714Y-97764342D02*
X141975714Y-97526247D01*
X141975714Y-97526247D02*
X141928095Y-97431009D01*
X141928095Y-97431009D02*
X141880476Y-97383390D01*
X141880476Y-97383390D02*
X141785238Y-97335771D01*
X141785238Y-97335771D02*
X141594762Y-97335771D01*
X141594762Y-97335771D02*
X141499524Y-97383390D01*
X141499524Y-97383390D02*
X141451905Y-97431009D01*
X141451905Y-97431009D02*
X141404286Y-97526247D01*
X92880952Y-79134819D02*
X92880952Y-78134819D01*
X92880952Y-78134819D02*
X93119047Y-78134819D01*
X93119047Y-78134819D02*
X93261904Y-78182438D01*
X93261904Y-78182438D02*
X93357142Y-78277676D01*
X93357142Y-78277676D02*
X93404761Y-78372914D01*
X93404761Y-78372914D02*
X93452380Y-78563390D01*
X93452380Y-78563390D02*
X93452380Y-78706247D01*
X93452380Y-78706247D02*
X93404761Y-78896723D01*
X93404761Y-78896723D02*
X93357142Y-78991961D01*
X93357142Y-78991961D02*
X93261904Y-79087200D01*
X93261904Y-79087200D02*
X93119047Y-79134819D01*
X93119047Y-79134819D02*
X92880952Y-79134819D01*
X93880952Y-79134819D02*
X93880952Y-78134819D01*
X93880952Y-78611009D02*
X94452380Y-78611009D01*
X94452380Y-79134819D02*
X94452380Y-78134819D01*
X94785714Y-78134819D02*
X95357142Y-78134819D01*
X95071428Y-79134819D02*
X95071428Y-78134819D01*
X96214285Y-79134819D02*
X95642857Y-79134819D01*
X95928571Y-79134819D02*
X95928571Y-78134819D01*
X95928571Y-78134819D02*
X95833333Y-78277676D01*
X95833333Y-78277676D02*
X95738095Y-78372914D01*
X95738095Y-78372914D02*
X95642857Y-78420533D01*
X97166666Y-79134819D02*
X96595238Y-79134819D01*
X96880952Y-79134819D02*
X96880952Y-78134819D01*
X96880952Y-78134819D02*
X96785714Y-78277676D01*
X96785714Y-78277676D02*
X96690476Y-78372914D01*
X96690476Y-78372914D02*
X96595238Y-78420533D01*
X94238095Y-70644819D02*
X94238095Y-71454342D01*
X94238095Y-71454342D02*
X94285714Y-71549580D01*
X94285714Y-71549580D02*
X94333333Y-71597200D01*
X94333333Y-71597200D02*
X94428571Y-71644819D01*
X94428571Y-71644819D02*
X94619047Y-71644819D01*
X94619047Y-71644819D02*
X94714285Y-71597200D01*
X94714285Y-71597200D02*
X94761904Y-71549580D01*
X94761904Y-71549580D02*
X94809523Y-71454342D01*
X94809523Y-71454342D02*
X94809523Y-70644819D01*
X95238095Y-70740057D02*
X95285714Y-70692438D01*
X95285714Y-70692438D02*
X95380952Y-70644819D01*
X95380952Y-70644819D02*
X95619047Y-70644819D01*
X95619047Y-70644819D02*
X95714285Y-70692438D01*
X95714285Y-70692438D02*
X95761904Y-70740057D01*
X95761904Y-70740057D02*
X95809523Y-70835295D01*
X95809523Y-70835295D02*
X95809523Y-70930533D01*
X95809523Y-70930533D02*
X95761904Y-71073390D01*
X95761904Y-71073390D02*
X95190476Y-71644819D01*
X95190476Y-71644819D02*
X95809523Y-71644819D01*
X140381428Y-88158152D02*
X140381428Y-88824819D01*
X140143333Y-87777200D02*
X139905238Y-88491485D01*
X139905238Y-88491485D02*
X140524285Y-88491485D01*
X140905238Y-88729580D02*
X140952857Y-88777200D01*
X140952857Y-88777200D02*
X140905238Y-88824819D01*
X140905238Y-88824819D02*
X140857619Y-88777200D01*
X140857619Y-88777200D02*
X140905238Y-88729580D01*
X140905238Y-88729580D02*
X140905238Y-88824819D01*
X141286190Y-87824819D02*
X141952856Y-87824819D01*
X141952856Y-87824819D02*
X141524285Y-88824819D01*
X142333809Y-88824819D02*
X142333809Y-87824819D01*
X142429047Y-88443866D02*
X142714761Y-88824819D01*
X142714761Y-88158152D02*
X142333809Y-88539104D01*
X141143333Y-86454819D02*
X140810000Y-85978628D01*
X140571905Y-86454819D02*
X140571905Y-85454819D01*
X140571905Y-85454819D02*
X140952857Y-85454819D01*
X140952857Y-85454819D02*
X141048095Y-85502438D01*
X141048095Y-85502438D02*
X141095714Y-85550057D01*
X141095714Y-85550057D02*
X141143333Y-85645295D01*
X141143333Y-85645295D02*
X141143333Y-85788152D01*
X141143333Y-85788152D02*
X141095714Y-85883390D01*
X141095714Y-85883390D02*
X141048095Y-85931009D01*
X141048095Y-85931009D02*
X140952857Y-85978628D01*
X140952857Y-85978628D02*
X140571905Y-85978628D01*
X141476667Y-85454819D02*
X142095714Y-85454819D01*
X142095714Y-85454819D02*
X141762381Y-85835771D01*
X141762381Y-85835771D02*
X141905238Y-85835771D01*
X141905238Y-85835771D02*
X142000476Y-85883390D01*
X142000476Y-85883390D02*
X142048095Y-85931009D01*
X142048095Y-85931009D02*
X142095714Y-86026247D01*
X142095714Y-86026247D02*
X142095714Y-86264342D01*
X142095714Y-86264342D02*
X142048095Y-86359580D01*
X142048095Y-86359580D02*
X142000476Y-86407200D01*
X142000476Y-86407200D02*
X141905238Y-86454819D01*
X141905238Y-86454819D02*
X141619524Y-86454819D01*
X141619524Y-86454819D02*
X141524286Y-86407200D01*
X141524286Y-86407200D02*
X141476667Y-86359580D01*
X159261904Y-99949580D02*
X159214285Y-99997200D01*
X159214285Y-99997200D02*
X159071428Y-100044819D01*
X159071428Y-100044819D02*
X158976190Y-100044819D01*
X158976190Y-100044819D02*
X158833333Y-99997200D01*
X158833333Y-99997200D02*
X158738095Y-99901961D01*
X158738095Y-99901961D02*
X158690476Y-99806723D01*
X158690476Y-99806723D02*
X158642857Y-99616247D01*
X158642857Y-99616247D02*
X158642857Y-99473390D01*
X158642857Y-99473390D02*
X158690476Y-99282914D01*
X158690476Y-99282914D02*
X158738095Y-99187676D01*
X158738095Y-99187676D02*
X158833333Y-99092438D01*
X158833333Y-99092438D02*
X158976190Y-99044819D01*
X158976190Y-99044819D02*
X159071428Y-99044819D01*
X159071428Y-99044819D02*
X159214285Y-99092438D01*
X159214285Y-99092438D02*
X159261904Y-99140057D01*
X159833333Y-100044819D02*
X159738095Y-99997200D01*
X159738095Y-99997200D02*
X159690476Y-99949580D01*
X159690476Y-99949580D02*
X159642857Y-99854342D01*
X159642857Y-99854342D02*
X159642857Y-99568628D01*
X159642857Y-99568628D02*
X159690476Y-99473390D01*
X159690476Y-99473390D02*
X159738095Y-99425771D01*
X159738095Y-99425771D02*
X159833333Y-99378152D01*
X159833333Y-99378152D02*
X159976190Y-99378152D01*
X159976190Y-99378152D02*
X160071428Y-99425771D01*
X160071428Y-99425771D02*
X160119047Y-99473390D01*
X160119047Y-99473390D02*
X160166666Y-99568628D01*
X160166666Y-99568628D02*
X160166666Y-99854342D01*
X160166666Y-99854342D02*
X160119047Y-99949580D01*
X160119047Y-99949580D02*
X160071428Y-99997200D01*
X160071428Y-99997200D02*
X159976190Y-100044819D01*
X159976190Y-100044819D02*
X159833333Y-100044819D01*
X160595238Y-99378152D02*
X160595238Y-100044819D01*
X160595238Y-99473390D02*
X160642857Y-99425771D01*
X160642857Y-99425771D02*
X160738095Y-99378152D01*
X160738095Y-99378152D02*
X160880952Y-99378152D01*
X160880952Y-99378152D02*
X160976190Y-99425771D01*
X160976190Y-99425771D02*
X161023809Y-99521009D01*
X161023809Y-99521009D02*
X161023809Y-100044819D01*
X161500000Y-99378152D02*
X161500000Y-100044819D01*
X161500000Y-99473390D02*
X161547619Y-99425771D01*
X161547619Y-99425771D02*
X161642857Y-99378152D01*
X161642857Y-99378152D02*
X161785714Y-99378152D01*
X161785714Y-99378152D02*
X161880952Y-99425771D01*
X161880952Y-99425771D02*
X161928571Y-99521009D01*
X161928571Y-99521009D02*
X161928571Y-100044819D01*
X162166667Y-100140057D02*
X162928571Y-100140057D01*
X163357143Y-99044819D02*
X163452381Y-99044819D01*
X163452381Y-99044819D02*
X163547619Y-99092438D01*
X163547619Y-99092438D02*
X163595238Y-99140057D01*
X163595238Y-99140057D02*
X163642857Y-99235295D01*
X163642857Y-99235295D02*
X163690476Y-99425771D01*
X163690476Y-99425771D02*
X163690476Y-99663866D01*
X163690476Y-99663866D02*
X163642857Y-99854342D01*
X163642857Y-99854342D02*
X163595238Y-99949580D01*
X163595238Y-99949580D02*
X163547619Y-99997200D01*
X163547619Y-99997200D02*
X163452381Y-100044819D01*
X163452381Y-100044819D02*
X163357143Y-100044819D01*
X163357143Y-100044819D02*
X163261905Y-99997200D01*
X163261905Y-99997200D02*
X163214286Y-99949580D01*
X163214286Y-99949580D02*
X163166667Y-99854342D01*
X163166667Y-99854342D02*
X163119048Y-99663866D01*
X163119048Y-99663866D02*
X163119048Y-99425771D01*
X163119048Y-99425771D02*
X163166667Y-99235295D01*
X163166667Y-99235295D02*
X163214286Y-99140057D01*
X163214286Y-99140057D02*
X163261905Y-99092438D01*
X163261905Y-99092438D02*
X163357143Y-99044819D01*
X164642857Y-100044819D02*
X164071429Y-100044819D01*
X164357143Y-100044819D02*
X164357143Y-99044819D01*
X164357143Y-99044819D02*
X164261905Y-99187676D01*
X164261905Y-99187676D02*
X164166667Y-99282914D01*
X164166667Y-99282914D02*
X164071429Y-99330533D01*
X164976191Y-100044819D02*
X165500000Y-99378152D01*
X164976191Y-99378152D02*
X165500000Y-100044819D01*
X166071429Y-99044819D02*
X166166667Y-99044819D01*
X166166667Y-99044819D02*
X166261905Y-99092438D01*
X166261905Y-99092438D02*
X166309524Y-99140057D01*
X166309524Y-99140057D02*
X166357143Y-99235295D01*
X166357143Y-99235295D02*
X166404762Y-99425771D01*
X166404762Y-99425771D02*
X166404762Y-99663866D01*
X166404762Y-99663866D02*
X166357143Y-99854342D01*
X166357143Y-99854342D02*
X166309524Y-99949580D01*
X166309524Y-99949580D02*
X166261905Y-99997200D01*
X166261905Y-99997200D02*
X166166667Y-100044819D01*
X166166667Y-100044819D02*
X166071429Y-100044819D01*
X166071429Y-100044819D02*
X165976191Y-99997200D01*
X165976191Y-99997200D02*
X165928572Y-99949580D01*
X165928572Y-99949580D02*
X165880953Y-99854342D01*
X165880953Y-99854342D02*
X165833334Y-99663866D01*
X165833334Y-99663866D02*
X165833334Y-99425771D01*
X165833334Y-99425771D02*
X165880953Y-99235295D01*
X165880953Y-99235295D02*
X165928572Y-99140057D01*
X165928572Y-99140057D02*
X165976191Y-99092438D01*
X165976191Y-99092438D02*
X166071429Y-99044819D01*
X166738096Y-99044819D02*
X167357143Y-99044819D01*
X167357143Y-99044819D02*
X167023810Y-99425771D01*
X167023810Y-99425771D02*
X167166667Y-99425771D01*
X167166667Y-99425771D02*
X167261905Y-99473390D01*
X167261905Y-99473390D02*
X167309524Y-99521009D01*
X167309524Y-99521009D02*
X167357143Y-99616247D01*
X167357143Y-99616247D02*
X167357143Y-99854342D01*
X167357143Y-99854342D02*
X167309524Y-99949580D01*
X167309524Y-99949580D02*
X167261905Y-99997200D01*
X167261905Y-99997200D02*
X167166667Y-100044819D01*
X167166667Y-100044819D02*
X166880953Y-100044819D01*
X166880953Y-100044819D02*
X166785715Y-99997200D01*
X166785715Y-99997200D02*
X166738096Y-99949580D01*
X162454819Y-104793333D02*
X163169104Y-104793333D01*
X163169104Y-104793333D02*
X163311961Y-104840952D01*
X163311961Y-104840952D02*
X163407200Y-104936190D01*
X163407200Y-104936190D02*
X163454819Y-105079047D01*
X163454819Y-105079047D02*
X163454819Y-105174285D01*
X162454819Y-104412380D02*
X162454819Y-103793333D01*
X162454819Y-103793333D02*
X162835771Y-104126666D01*
X162835771Y-104126666D02*
X162835771Y-103983809D01*
X162835771Y-103983809D02*
X162883390Y-103888571D01*
X162883390Y-103888571D02*
X162931009Y-103840952D01*
X162931009Y-103840952D02*
X163026247Y-103793333D01*
X163026247Y-103793333D02*
X163264342Y-103793333D01*
X163264342Y-103793333D02*
X163359580Y-103840952D01*
X163359580Y-103840952D02*
X163407200Y-103888571D01*
X163407200Y-103888571D02*
X163454819Y-103983809D01*
X163454819Y-103983809D02*
X163454819Y-104269523D01*
X163454819Y-104269523D02*
X163407200Y-104364761D01*
X163407200Y-104364761D02*
X163359580Y-104412380D01*
X104850000Y-120169104D02*
X105326190Y-120169104D01*
X104754762Y-120454819D02*
X105088095Y-119454819D01*
X105088095Y-119454819D02*
X105421428Y-120454819D01*
X105754762Y-120454819D02*
X105754762Y-119454819D01*
X105754762Y-119454819D02*
X106088095Y-120169104D01*
X106088095Y-120169104D02*
X106421428Y-119454819D01*
X106421428Y-119454819D02*
X106421428Y-120454819D01*
X106850000Y-120407200D02*
X106992857Y-120454819D01*
X106992857Y-120454819D02*
X107230952Y-120454819D01*
X107230952Y-120454819D02*
X107326190Y-120407200D01*
X107326190Y-120407200D02*
X107373809Y-120359580D01*
X107373809Y-120359580D02*
X107421428Y-120264342D01*
X107421428Y-120264342D02*
X107421428Y-120169104D01*
X107421428Y-120169104D02*
X107373809Y-120073866D01*
X107373809Y-120073866D02*
X107326190Y-120026247D01*
X107326190Y-120026247D02*
X107230952Y-119978628D01*
X107230952Y-119978628D02*
X107040476Y-119931009D01*
X107040476Y-119931009D02*
X106945238Y-119883390D01*
X106945238Y-119883390D02*
X106897619Y-119835771D01*
X106897619Y-119835771D02*
X106850000Y-119740533D01*
X106850000Y-119740533D02*
X106850000Y-119645295D01*
X106850000Y-119645295D02*
X106897619Y-119550057D01*
X106897619Y-119550057D02*
X106945238Y-119502438D01*
X106945238Y-119502438D02*
X107040476Y-119454819D01*
X107040476Y-119454819D02*
X107278571Y-119454819D01*
X107278571Y-119454819D02*
X107421428Y-119502438D01*
X108373809Y-120454819D02*
X107802381Y-120454819D01*
X108088095Y-120454819D02*
X108088095Y-119454819D01*
X108088095Y-119454819D02*
X107992857Y-119597676D01*
X107992857Y-119597676D02*
X107897619Y-119692914D01*
X107897619Y-119692914D02*
X107802381Y-119740533D01*
X109326190Y-120454819D02*
X108754762Y-120454819D01*
X109040476Y-120454819D02*
X109040476Y-119454819D01*
X109040476Y-119454819D02*
X108945238Y-119597676D01*
X108945238Y-119597676D02*
X108850000Y-119692914D01*
X108850000Y-119692914D02*
X108754762Y-119740533D01*
X110278571Y-120454819D02*
X109707143Y-120454819D01*
X109992857Y-120454819D02*
X109992857Y-119454819D01*
X109992857Y-119454819D02*
X109897619Y-119597676D01*
X109897619Y-119597676D02*
X109802381Y-119692914D01*
X109802381Y-119692914D02*
X109707143Y-119740533D01*
X110611905Y-119454819D02*
X111278571Y-119454819D01*
X111278571Y-119454819D02*
X110850000Y-120454819D01*
X111659524Y-120073866D02*
X112421429Y-120073866D01*
X112802381Y-119454819D02*
X113421428Y-119454819D01*
X113421428Y-119454819D02*
X113088095Y-119835771D01*
X113088095Y-119835771D02*
X113230952Y-119835771D01*
X113230952Y-119835771D02*
X113326190Y-119883390D01*
X113326190Y-119883390D02*
X113373809Y-119931009D01*
X113373809Y-119931009D02*
X113421428Y-120026247D01*
X113421428Y-120026247D02*
X113421428Y-120264342D01*
X113421428Y-120264342D02*
X113373809Y-120359580D01*
X113373809Y-120359580D02*
X113326190Y-120407200D01*
X113326190Y-120407200D02*
X113230952Y-120454819D01*
X113230952Y-120454819D02*
X112945238Y-120454819D01*
X112945238Y-120454819D02*
X112850000Y-120407200D01*
X112850000Y-120407200D02*
X112802381Y-120359580D01*
X113850000Y-120359580D02*
X113897619Y-120407200D01*
X113897619Y-120407200D02*
X113850000Y-120454819D01*
X113850000Y-120454819D02*
X113802381Y-120407200D01*
X113802381Y-120407200D02*
X113850000Y-120359580D01*
X113850000Y-120359580D02*
X113850000Y-120454819D01*
X114230952Y-119454819D02*
X114849999Y-119454819D01*
X114849999Y-119454819D02*
X114516666Y-119835771D01*
X114516666Y-119835771D02*
X114659523Y-119835771D01*
X114659523Y-119835771D02*
X114754761Y-119883390D01*
X114754761Y-119883390D02*
X114802380Y-119931009D01*
X114802380Y-119931009D02*
X114849999Y-120026247D01*
X114849999Y-120026247D02*
X114849999Y-120264342D01*
X114849999Y-120264342D02*
X114802380Y-120359580D01*
X114802380Y-120359580D02*
X114754761Y-120407200D01*
X114754761Y-120407200D02*
X114659523Y-120454819D01*
X114659523Y-120454819D02*
X114373809Y-120454819D01*
X114373809Y-120454819D02*
X114278571Y-120407200D01*
X114278571Y-120407200D02*
X114230952Y-120359580D01*
D12*
X109413855Y-116109523D02*
X110061474Y-116109523D01*
X110061474Y-116109523D02*
X110137664Y-116071428D01*
X110137664Y-116071428D02*
X110175760Y-116033333D01*
X110175760Y-116033333D02*
X110213855Y-115957142D01*
X110213855Y-115957142D02*
X110213855Y-115804761D01*
X110213855Y-115804761D02*
X110175760Y-115728571D01*
X110175760Y-115728571D02*
X110137664Y-115690476D01*
X110137664Y-115690476D02*
X110061474Y-115652380D01*
X110061474Y-115652380D02*
X109413855Y-115652380D01*
X109413855Y-114890476D02*
X109413855Y-115271428D01*
X109413855Y-115271428D02*
X109794807Y-115309524D01*
X109794807Y-115309524D02*
X109756712Y-115271428D01*
X109756712Y-115271428D02*
X109718617Y-115195238D01*
X109718617Y-115195238D02*
X109718617Y-115004762D01*
X109718617Y-115004762D02*
X109756712Y-114928571D01*
X109756712Y-114928571D02*
X109794807Y-114890476D01*
X109794807Y-114890476D02*
X109870998Y-114852381D01*
X109870998Y-114852381D02*
X110061474Y-114852381D01*
X110061474Y-114852381D02*
X110137664Y-114890476D01*
X110137664Y-114890476D02*
X110175760Y-114928571D01*
X110175760Y-114928571D02*
X110213855Y-115004762D01*
X110213855Y-115004762D02*
X110213855Y-115195238D01*
X110213855Y-115195238D02*
X110175760Y-115271428D01*
X110175760Y-115271428D02*
X110137664Y-115309524D01*
D13*
%TO.C,U3*%
X92700000Y-84275000D02*
X92700000Y-86525000D01*
X92700000Y-84275000D02*
X94700000Y-84275000D01*
X92700000Y-86525000D02*
X92950000Y-86775000D01*
X94700000Y-86775000D02*
X92950000Y-86775000D01*
X94700000Y-86775000D02*
X94700000Y-84275000D01*
%TO.C,J1*%
X161730000Y-80285000D02*
X162365000Y-79650000D01*
X161730000Y-87270000D02*
X161730000Y-80285000D01*
X162365000Y-79650000D02*
X164270000Y-79650000D01*
X164270000Y-79650000D02*
X164270000Y-87270000D01*
X164270000Y-87270000D02*
X161730000Y-87270000D01*
%TO.C,R5*%
X137380000Y-93450000D02*
X138040000Y-93450000D01*
X138040000Y-92200000D02*
X138040000Y-94700000D01*
X138040000Y-94700000D02*
X144340000Y-94700000D01*
X144340000Y-92200000D02*
X138040000Y-92200000D01*
X144340000Y-94700000D02*
X144340000Y-92200000D01*
X145000000Y-93450000D02*
X144340000Y-93450000D01*
%TO.C,U1*%
X104630000Y-67010000D02*
X104630000Y-72220000D01*
X104630000Y-74220000D02*
X104630000Y-92310000D01*
X104630000Y-74220000D02*
X105630000Y-73220000D01*
X104630000Y-92310000D02*
X107170000Y-92310000D01*
X105630000Y-73220000D02*
X104630000Y-72220000D01*
X107170000Y-92310000D02*
X107170000Y-99210000D01*
X107170000Y-99210000D02*
X130230000Y-99210000D01*
X128230000Y-65010000D02*
X106630000Y-65010000D01*
X130230000Y-99210000D02*
X130230000Y-67010000D01*
X104630000Y-67010000D02*
G75*
G02*
X106630000Y-65010000I1999999J1D01*
G01*
X128250000Y-65010000D02*
G75*
G02*
X130230000Y-67030000I-20000J-2000000D01*
G01*
%TO.C,R1*%
X156200000Y-110750000D02*
X162200000Y-110750000D01*
X158300000Y-113200000D02*
X160100000Y-113200000D01*
X158300000Y-113800000D02*
X158300000Y-114400000D01*
X158300000Y-114400000D02*
X160100000Y-114400000D01*
X158300000Y-115000000D02*
X158300000Y-115600000D01*
X158300000Y-115600000D02*
X160100000Y-115600000D01*
X158300000Y-116200000D02*
X158300000Y-116800000D01*
X158300000Y-116800000D02*
X160100000Y-116800000D01*
X160100000Y-113200000D02*
X160100000Y-113800000D01*
X160100000Y-113800000D02*
X158300000Y-113800000D01*
X160100000Y-114400000D02*
X160100000Y-115000000D01*
X160100000Y-115000000D02*
X158300000Y-115000000D01*
X160100000Y-115600000D02*
X160100000Y-116200000D01*
X160100000Y-116200000D02*
X158300000Y-116200000D01*
X162200000Y-119250000D02*
X156200000Y-119250000D01*
X156200000Y-119250000D02*
G75*
G02*
X156158251Y-110779780I3000000J4250000D01*
G01*
X162200000Y-110750000D02*
G75*
G02*
X162241749Y-119220220I-3000000J-4250000D01*
G01*
%TO.C,R4*%
X137380000Y-89400000D02*
X138040000Y-89400000D01*
X138040000Y-88150000D02*
X138040000Y-90650000D01*
X138040000Y-90650000D02*
X144340000Y-90650000D01*
X144340000Y-88150000D02*
X138040000Y-88150000D01*
X144340000Y-90650000D02*
X144340000Y-88150000D01*
X145000000Y-89400000D02*
X144340000Y-89400000D01*
%TO.C,D1*%
X93150000Y-109820000D02*
X93150000Y-115020000D01*
X93150000Y-115020000D02*
X95850000Y-115020000D01*
X94500000Y-107340000D02*
X94500000Y-109820000D01*
X94500000Y-117500000D02*
X94500000Y-115020000D01*
X95850000Y-109820000D02*
X93150000Y-109820000D01*
X95850000Y-110500000D02*
X93150000Y-110500000D01*
X95850000Y-110600000D02*
X93150000Y-110600000D01*
X95850000Y-110700000D02*
X93150000Y-110700000D01*
X95850000Y-115020000D02*
X95850000Y-109820000D01*
%TO.C,R2*%
X137500000Y-82500000D02*
X138160000Y-82500000D01*
X138160000Y-81250000D02*
X138160000Y-83750000D01*
X138160000Y-83750000D02*
X144460000Y-83750000D01*
X144460000Y-81250000D02*
X138160000Y-81250000D01*
X144460000Y-83750000D02*
X144460000Y-81250000D01*
X145120000Y-82500000D02*
X144460000Y-82500000D01*
%TO.C,C2*%
X124000000Y-116250000D02*
X124000000Y-118750000D01*
X124000000Y-118750000D02*
X130000000Y-118750000D01*
X130000000Y-116250000D02*
X124000000Y-116250000D01*
X130000000Y-118750000D02*
X130000000Y-116250000D01*
%TO.C,J4*%
X161730000Y-65610000D02*
X164270000Y-65610000D01*
X161730000Y-75770000D02*
X161730000Y-65610000D01*
X163635000Y-75770000D02*
X161730000Y-75770000D01*
X164270000Y-65610000D02*
X164270000Y-75135000D01*
X164270000Y-75135000D02*
X163635000Y-75770000D01*
%TO.C,U4*%
X140025000Y-114620000D02*
X141000000Y-113645000D01*
X140025000Y-118545000D02*
X140025000Y-114620000D01*
X141000000Y-113645000D02*
X143925000Y-113645000D01*
X143925000Y-113645000D02*
X143925000Y-118545000D01*
X143925000Y-118545000D02*
X140025000Y-118545000D01*
%TO.C,J2*%
X161730000Y-91190000D02*
X164270000Y-91190000D01*
X161730000Y-96270000D02*
X161730000Y-91190000D01*
X163635000Y-96270000D02*
X161730000Y-96270000D01*
X164270000Y-91190000D02*
X164270000Y-95635000D01*
X164270000Y-95635000D02*
X163635000Y-96270000D01*
%TO.C,C1*%
X124000000Y-109750000D02*
X124000000Y-112250000D01*
X124000000Y-112250000D02*
X130000000Y-112250000D01*
X130000000Y-109750000D02*
X124000000Y-109750000D01*
X130000000Y-112250000D02*
X130000000Y-109750000D01*
%TO.C,R6*%
X137380000Y-97500000D02*
X138040000Y-97500000D01*
X138040000Y-96250000D02*
X138040000Y-98750000D01*
X138040000Y-98750000D02*
X144340000Y-98750000D01*
X144340000Y-96250000D02*
X138040000Y-96250000D01*
X144340000Y-98750000D02*
X144340000Y-96250000D01*
X145000000Y-97500000D02*
X144340000Y-97500000D01*
%TO.C,U2*%
X92250000Y-66190000D02*
X92250000Y-77190000D01*
X92250000Y-66190000D02*
X93250000Y-65190000D01*
X93250000Y-65190000D02*
X97750000Y-65190000D01*
X97750000Y-65190000D02*
X97750000Y-77190000D01*
X97750000Y-77190000D02*
X92250000Y-77190000D01*
%TO.C,R3*%
X137500000Y-86000000D02*
X138160000Y-86000000D01*
X138160000Y-84750000D02*
X138160000Y-87250000D01*
X138160000Y-87250000D02*
X144460000Y-87250000D01*
X144460000Y-84750000D02*
X138160000Y-84750000D01*
X144460000Y-87250000D02*
X144460000Y-84750000D01*
X145120000Y-86000000D02*
X144460000Y-86000000D01*
%TO.C,J3*%
X161730000Y-100650000D02*
X164270000Y-100650000D01*
X161730000Y-108270000D02*
X161730000Y-100650000D01*
X163635000Y-108270000D02*
X161730000Y-108270000D01*
X164270000Y-100650000D02*
X164270000Y-107635000D01*
X164270000Y-107635000D02*
X163635000Y-108270000D01*
%TO.C,U5*%
X108000000Y-113150000D02*
X108000000Y-118850000D01*
X108000000Y-113150000D02*
X109000000Y-112150000D01*
X108000000Y-118850000D02*
X111700000Y-118850000D01*
X109000000Y-112150000D02*
X111700000Y-112150000D01*
X111700000Y-112150000D02*
X111700000Y-118850000D01*
%TD*%
M02*
