%TF.GenerationSoftware,KiCad,Pcbnew,9.0.0*%
%TF.CreationDate,2025-04-01T09:39:50+05:30*%
%TF.ProjectId,WMS,574d532e-6b69-4636-9164-5f7063625858,rev?*%
%TF.SameCoordinates,Original*%
%TF.FileFunction,Legend,Top*%
%TF.FilePolarity,Positive*%
%FSLAX46Y46*%
G04 Gerber Fmt 4.6, Leading zero omitted, Abs format (unit mm)*
G04 Created by KiCad (PCBNEW 9.0.0) date 2025-04-01 09:39:50*
%MOMM*%
%LPD*%
G01*
G04 APERTURE LIST*
%ADD10C,0.150000*%
%ADD11C,0.100000*%
%ADD12C,0.120000*%
G04 APERTURE END LIST*
D10*
X90054819Y-86286904D02*
X90864342Y-86286904D01*
X90864342Y-86286904D02*
X90959580Y-86239285D01*
X90959580Y-86239285D02*
X91007200Y-86191666D01*
X91007200Y-86191666D02*
X91054819Y-86096428D01*
X91054819Y-86096428D02*
X91054819Y-85905952D01*
X91054819Y-85905952D02*
X91007200Y-85810714D01*
X91007200Y-85810714D02*
X90959580Y-85763095D01*
X90959580Y-85763095D02*
X90864342Y-85715476D01*
X90864342Y-85715476D02*
X90054819Y-85715476D01*
X90054819Y-85334523D02*
X90054819Y-84715476D01*
X90054819Y-84715476D02*
X90435771Y-85048809D01*
X90435771Y-85048809D02*
X90435771Y-84905952D01*
X90435771Y-84905952D02*
X90483390Y-84810714D01*
X90483390Y-84810714D02*
X90531009Y-84763095D01*
X90531009Y-84763095D02*
X90626247Y-84715476D01*
X90626247Y-84715476D02*
X90864342Y-84715476D01*
X90864342Y-84715476D02*
X90959580Y-84763095D01*
X90959580Y-84763095D02*
X91007200Y-84810714D01*
X91007200Y-84810714D02*
X91054819Y-84905952D01*
X91054819Y-84905952D02*
X91054819Y-85191666D01*
X91054819Y-85191666D02*
X91007200Y-85286904D01*
X91007200Y-85286904D02*
X90959580Y-85334523D01*
X162666666Y-78044819D02*
X162666666Y-78759104D01*
X162666666Y-78759104D02*
X162619047Y-78901961D01*
X162619047Y-78901961D02*
X162523809Y-78997200D01*
X162523809Y-78997200D02*
X162380952Y-79044819D01*
X162380952Y-79044819D02*
X162285714Y-79044819D01*
X163666666Y-79044819D02*
X163095238Y-79044819D01*
X163380952Y-79044819D02*
X163380952Y-78044819D01*
X163380952Y-78044819D02*
X163285714Y-78187676D01*
X163285714Y-78187676D02*
X163190476Y-78282914D01*
X163190476Y-78282914D02*
X163095238Y-78330533D01*
X141023333Y-91534819D02*
X140690000Y-91058628D01*
X140451905Y-91534819D02*
X140451905Y-90534819D01*
X140451905Y-90534819D02*
X140832857Y-90534819D01*
X140832857Y-90534819D02*
X140928095Y-90582438D01*
X140928095Y-90582438D02*
X140975714Y-90630057D01*
X140975714Y-90630057D02*
X141023333Y-90725295D01*
X141023333Y-90725295D02*
X141023333Y-90868152D01*
X141023333Y-90868152D02*
X140975714Y-90963390D01*
X140975714Y-90963390D02*
X140928095Y-91011009D01*
X140928095Y-91011009D02*
X140832857Y-91058628D01*
X140832857Y-91058628D02*
X140451905Y-91058628D01*
X141928095Y-90534819D02*
X141451905Y-90534819D01*
X141451905Y-90534819D02*
X141404286Y-91011009D01*
X141404286Y-91011009D02*
X141451905Y-90963390D01*
X141451905Y-90963390D02*
X141547143Y-90915771D01*
X141547143Y-90915771D02*
X141785238Y-90915771D01*
X141785238Y-90915771D02*
X141880476Y-90963390D01*
X141880476Y-90963390D02*
X141928095Y-91011009D01*
X141928095Y-91011009D02*
X141975714Y-91106247D01*
X141975714Y-91106247D02*
X141975714Y-91344342D01*
X141975714Y-91344342D02*
X141928095Y-91439580D01*
X141928095Y-91439580D02*
X141880476Y-91487200D01*
X141880476Y-91487200D02*
X141785238Y-91534819D01*
X141785238Y-91534819D02*
X141547143Y-91534819D01*
X141547143Y-91534819D02*
X141451905Y-91487200D01*
X141451905Y-91487200D02*
X141404286Y-91439580D01*
X127238095Y-99674819D02*
X127238095Y-100484342D01*
X127238095Y-100484342D02*
X127285714Y-100579580D01*
X127285714Y-100579580D02*
X127333333Y-100627200D01*
X127333333Y-100627200D02*
X127428571Y-100674819D01*
X127428571Y-100674819D02*
X127619047Y-100674819D01*
X127619047Y-100674819D02*
X127714285Y-100627200D01*
X127714285Y-100627200D02*
X127761904Y-100579580D01*
X127761904Y-100579580D02*
X127809523Y-100484342D01*
X127809523Y-100484342D02*
X127809523Y-99674819D01*
X128809523Y-100674819D02*
X128238095Y-100674819D01*
X128523809Y-100674819D02*
X128523809Y-99674819D01*
X128523809Y-99674819D02*
X128428571Y-99817676D01*
X128428571Y-99817676D02*
X128333333Y-99912914D01*
X128333333Y-99912914D02*
X128238095Y-99960533D01*
X159033333Y-110254819D02*
X158700000Y-109778628D01*
X158461905Y-110254819D02*
X158461905Y-109254819D01*
X158461905Y-109254819D02*
X158842857Y-109254819D01*
X158842857Y-109254819D02*
X158938095Y-109302438D01*
X158938095Y-109302438D02*
X158985714Y-109350057D01*
X158985714Y-109350057D02*
X159033333Y-109445295D01*
X159033333Y-109445295D02*
X159033333Y-109588152D01*
X159033333Y-109588152D02*
X158985714Y-109683390D01*
X158985714Y-109683390D02*
X158938095Y-109731009D01*
X158938095Y-109731009D02*
X158842857Y-109778628D01*
X158842857Y-109778628D02*
X158461905Y-109778628D01*
X159985714Y-110254819D02*
X159414286Y-110254819D01*
X159700000Y-110254819D02*
X159700000Y-109254819D01*
X159700000Y-109254819D02*
X159604762Y-109397676D01*
X159604762Y-109397676D02*
X159509524Y-109492914D01*
X159509524Y-109492914D02*
X159414286Y-109540533D01*
X141023333Y-87484819D02*
X140690000Y-87008628D01*
X140451905Y-87484819D02*
X140451905Y-86484819D01*
X140451905Y-86484819D02*
X140832857Y-86484819D01*
X140832857Y-86484819D02*
X140928095Y-86532438D01*
X140928095Y-86532438D02*
X140975714Y-86580057D01*
X140975714Y-86580057D02*
X141023333Y-86675295D01*
X141023333Y-86675295D02*
X141023333Y-86818152D01*
X141023333Y-86818152D02*
X140975714Y-86913390D01*
X140975714Y-86913390D02*
X140928095Y-86961009D01*
X140928095Y-86961009D02*
X140832857Y-87008628D01*
X140832857Y-87008628D02*
X140451905Y-87008628D01*
X141880476Y-86818152D02*
X141880476Y-87484819D01*
X141642381Y-86437200D02*
X141404286Y-87151485D01*
X141404286Y-87151485D02*
X142023333Y-87151485D01*
X97424819Y-113158094D02*
X96424819Y-113158094D01*
X96424819Y-113158094D02*
X96424819Y-112919999D01*
X96424819Y-112919999D02*
X96472438Y-112777142D01*
X96472438Y-112777142D02*
X96567676Y-112681904D01*
X96567676Y-112681904D02*
X96662914Y-112634285D01*
X96662914Y-112634285D02*
X96853390Y-112586666D01*
X96853390Y-112586666D02*
X96996247Y-112586666D01*
X96996247Y-112586666D02*
X97186723Y-112634285D01*
X97186723Y-112634285D02*
X97281961Y-112681904D01*
X97281961Y-112681904D02*
X97377200Y-112777142D01*
X97377200Y-112777142D02*
X97424819Y-112919999D01*
X97424819Y-112919999D02*
X97424819Y-113158094D01*
X97424819Y-111634285D02*
X97424819Y-112205713D01*
X97424819Y-111919999D02*
X96424819Y-111919999D01*
X96424819Y-111919999D02*
X96567676Y-112015237D01*
X96567676Y-112015237D02*
X96662914Y-112110475D01*
X96662914Y-112110475D02*
X96710533Y-112205713D01*
X97054819Y-107601904D02*
X96054819Y-107601904D01*
X97054819Y-107030476D02*
X96483390Y-107459047D01*
X96054819Y-107030476D02*
X96626247Y-107601904D01*
X141143333Y-80584819D02*
X140810000Y-80108628D01*
X140571905Y-80584819D02*
X140571905Y-79584819D01*
X140571905Y-79584819D02*
X140952857Y-79584819D01*
X140952857Y-79584819D02*
X141048095Y-79632438D01*
X141048095Y-79632438D02*
X141095714Y-79680057D01*
X141095714Y-79680057D02*
X141143333Y-79775295D01*
X141143333Y-79775295D02*
X141143333Y-79918152D01*
X141143333Y-79918152D02*
X141095714Y-80013390D01*
X141095714Y-80013390D02*
X141048095Y-80061009D01*
X141048095Y-80061009D02*
X140952857Y-80108628D01*
X140952857Y-80108628D02*
X140571905Y-80108628D01*
X141524286Y-79680057D02*
X141571905Y-79632438D01*
X141571905Y-79632438D02*
X141667143Y-79584819D01*
X141667143Y-79584819D02*
X141905238Y-79584819D01*
X141905238Y-79584819D02*
X142000476Y-79632438D01*
X142000476Y-79632438D02*
X142048095Y-79680057D01*
X142048095Y-79680057D02*
X142095714Y-79775295D01*
X142095714Y-79775295D02*
X142095714Y-79870533D01*
X142095714Y-79870533D02*
X142048095Y-80013390D01*
X142048095Y-80013390D02*
X141476667Y-80584819D01*
X141476667Y-80584819D02*
X142095714Y-80584819D01*
X126833333Y-115359580D02*
X126785714Y-115407200D01*
X126785714Y-115407200D02*
X126642857Y-115454819D01*
X126642857Y-115454819D02*
X126547619Y-115454819D01*
X126547619Y-115454819D02*
X126404762Y-115407200D01*
X126404762Y-115407200D02*
X126309524Y-115311961D01*
X126309524Y-115311961D02*
X126261905Y-115216723D01*
X126261905Y-115216723D02*
X126214286Y-115026247D01*
X126214286Y-115026247D02*
X126214286Y-114883390D01*
X126214286Y-114883390D02*
X126261905Y-114692914D01*
X126261905Y-114692914D02*
X126309524Y-114597676D01*
X126309524Y-114597676D02*
X126404762Y-114502438D01*
X126404762Y-114502438D02*
X126547619Y-114454819D01*
X126547619Y-114454819D02*
X126642857Y-114454819D01*
X126642857Y-114454819D02*
X126785714Y-114502438D01*
X126785714Y-114502438D02*
X126833333Y-114550057D01*
X127214286Y-114550057D02*
X127261905Y-114502438D01*
X127261905Y-114502438D02*
X127357143Y-114454819D01*
X127357143Y-114454819D02*
X127595238Y-114454819D01*
X127595238Y-114454819D02*
X127690476Y-114502438D01*
X127690476Y-114502438D02*
X127738095Y-114550057D01*
X127738095Y-114550057D02*
X127785714Y-114645295D01*
X127785714Y-114645295D02*
X127785714Y-114740533D01*
X127785714Y-114740533D02*
X127738095Y-114883390D01*
X127738095Y-114883390D02*
X127166667Y-115454819D01*
X127166667Y-115454819D02*
X127785714Y-115454819D01*
X162666666Y-76284819D02*
X162666666Y-76999104D01*
X162666666Y-76999104D02*
X162619047Y-77141961D01*
X162619047Y-77141961D02*
X162523809Y-77237200D01*
X162523809Y-77237200D02*
X162380952Y-77284819D01*
X162380952Y-77284819D02*
X162285714Y-77284819D01*
X163571428Y-76618152D02*
X163571428Y-77284819D01*
X163333333Y-76237200D02*
X163095238Y-76951485D01*
X163095238Y-76951485D02*
X163714285Y-76951485D01*
X141213095Y-112149819D02*
X141213095Y-112959342D01*
X141213095Y-112959342D02*
X141260714Y-113054580D01*
X141260714Y-113054580D02*
X141308333Y-113102200D01*
X141308333Y-113102200D02*
X141403571Y-113149819D01*
X141403571Y-113149819D02*
X141594047Y-113149819D01*
X141594047Y-113149819D02*
X141689285Y-113102200D01*
X141689285Y-113102200D02*
X141736904Y-113054580D01*
X141736904Y-113054580D02*
X141784523Y-112959342D01*
X141784523Y-112959342D02*
X141784523Y-112149819D01*
X142689285Y-112483152D02*
X142689285Y-113149819D01*
X142451190Y-112102200D02*
X142213095Y-112816485D01*
X142213095Y-112816485D02*
X142832142Y-112816485D01*
X162666666Y-96784819D02*
X162666666Y-97499104D01*
X162666666Y-97499104D02*
X162619047Y-97641961D01*
X162619047Y-97641961D02*
X162523809Y-97737200D01*
X162523809Y-97737200D02*
X162380952Y-97784819D01*
X162380952Y-97784819D02*
X162285714Y-97784819D01*
X163095238Y-96880057D02*
X163142857Y-96832438D01*
X163142857Y-96832438D02*
X163238095Y-96784819D01*
X163238095Y-96784819D02*
X163476190Y-96784819D01*
X163476190Y-96784819D02*
X163571428Y-96832438D01*
X163571428Y-96832438D02*
X163619047Y-96880057D01*
X163619047Y-96880057D02*
X163666666Y-96975295D01*
X163666666Y-96975295D02*
X163666666Y-97070533D01*
X163666666Y-97070533D02*
X163619047Y-97213390D01*
X163619047Y-97213390D02*
X163047619Y-97784819D01*
X163047619Y-97784819D02*
X163666666Y-97784819D01*
X126833333Y-108859580D02*
X126785714Y-108907200D01*
X126785714Y-108907200D02*
X126642857Y-108954819D01*
X126642857Y-108954819D02*
X126547619Y-108954819D01*
X126547619Y-108954819D02*
X126404762Y-108907200D01*
X126404762Y-108907200D02*
X126309524Y-108811961D01*
X126309524Y-108811961D02*
X126261905Y-108716723D01*
X126261905Y-108716723D02*
X126214286Y-108526247D01*
X126214286Y-108526247D02*
X126214286Y-108383390D01*
X126214286Y-108383390D02*
X126261905Y-108192914D01*
X126261905Y-108192914D02*
X126309524Y-108097676D01*
X126309524Y-108097676D02*
X126404762Y-108002438D01*
X126404762Y-108002438D02*
X126547619Y-107954819D01*
X126547619Y-107954819D02*
X126642857Y-107954819D01*
X126642857Y-107954819D02*
X126785714Y-108002438D01*
X126785714Y-108002438D02*
X126833333Y-108050057D01*
X127785714Y-108954819D02*
X127214286Y-108954819D01*
X127500000Y-108954819D02*
X127500000Y-107954819D01*
X127500000Y-107954819D02*
X127404762Y-108097676D01*
X127404762Y-108097676D02*
X127309524Y-108192914D01*
X127309524Y-108192914D02*
X127214286Y-108240533D01*
X141023333Y-95584819D02*
X140690000Y-95108628D01*
X140451905Y-95584819D02*
X140451905Y-94584819D01*
X140451905Y-94584819D02*
X140832857Y-94584819D01*
X140832857Y-94584819D02*
X140928095Y-94632438D01*
X140928095Y-94632438D02*
X140975714Y-94680057D01*
X140975714Y-94680057D02*
X141023333Y-94775295D01*
X141023333Y-94775295D02*
X141023333Y-94918152D01*
X141023333Y-94918152D02*
X140975714Y-95013390D01*
X140975714Y-95013390D02*
X140928095Y-95061009D01*
X140928095Y-95061009D02*
X140832857Y-95108628D01*
X140832857Y-95108628D02*
X140451905Y-95108628D01*
X141880476Y-94584819D02*
X141690000Y-94584819D01*
X141690000Y-94584819D02*
X141594762Y-94632438D01*
X141594762Y-94632438D02*
X141547143Y-94680057D01*
X141547143Y-94680057D02*
X141451905Y-94822914D01*
X141451905Y-94822914D02*
X141404286Y-95013390D01*
X141404286Y-95013390D02*
X141404286Y-95394342D01*
X141404286Y-95394342D02*
X141451905Y-95489580D01*
X141451905Y-95489580D02*
X141499524Y-95537200D01*
X141499524Y-95537200D02*
X141594762Y-95584819D01*
X141594762Y-95584819D02*
X141785238Y-95584819D01*
X141785238Y-95584819D02*
X141880476Y-95537200D01*
X141880476Y-95537200D02*
X141928095Y-95489580D01*
X141928095Y-95489580D02*
X141975714Y-95394342D01*
X141975714Y-95394342D02*
X141975714Y-95156247D01*
X141975714Y-95156247D02*
X141928095Y-95061009D01*
X141928095Y-95061009D02*
X141880476Y-95013390D01*
X141880476Y-95013390D02*
X141785238Y-94965771D01*
X141785238Y-94965771D02*
X141594762Y-94965771D01*
X141594762Y-94965771D02*
X141499524Y-95013390D01*
X141499524Y-95013390D02*
X141451905Y-95061009D01*
X141451905Y-95061009D02*
X141404286Y-95156247D01*
X93238095Y-63334819D02*
X93238095Y-64144342D01*
X93238095Y-64144342D02*
X93285714Y-64239580D01*
X93285714Y-64239580D02*
X93333333Y-64287200D01*
X93333333Y-64287200D02*
X93428571Y-64334819D01*
X93428571Y-64334819D02*
X93619047Y-64334819D01*
X93619047Y-64334819D02*
X93714285Y-64287200D01*
X93714285Y-64287200D02*
X93761904Y-64239580D01*
X93761904Y-64239580D02*
X93809523Y-64144342D01*
X93809523Y-64144342D02*
X93809523Y-63334819D01*
X94238095Y-63430057D02*
X94285714Y-63382438D01*
X94285714Y-63382438D02*
X94380952Y-63334819D01*
X94380952Y-63334819D02*
X94619047Y-63334819D01*
X94619047Y-63334819D02*
X94714285Y-63382438D01*
X94714285Y-63382438D02*
X94761904Y-63430057D01*
X94761904Y-63430057D02*
X94809523Y-63525295D01*
X94809523Y-63525295D02*
X94809523Y-63620533D01*
X94809523Y-63620533D02*
X94761904Y-63763390D01*
X94761904Y-63763390D02*
X94190476Y-64334819D01*
X94190476Y-64334819D02*
X94809523Y-64334819D01*
X141143333Y-84084819D02*
X140810000Y-83608628D01*
X140571905Y-84084819D02*
X140571905Y-83084819D01*
X140571905Y-83084819D02*
X140952857Y-83084819D01*
X140952857Y-83084819D02*
X141048095Y-83132438D01*
X141048095Y-83132438D02*
X141095714Y-83180057D01*
X141095714Y-83180057D02*
X141143333Y-83275295D01*
X141143333Y-83275295D02*
X141143333Y-83418152D01*
X141143333Y-83418152D02*
X141095714Y-83513390D01*
X141095714Y-83513390D02*
X141048095Y-83561009D01*
X141048095Y-83561009D02*
X140952857Y-83608628D01*
X140952857Y-83608628D02*
X140571905Y-83608628D01*
X141476667Y-83084819D02*
X142095714Y-83084819D01*
X142095714Y-83084819D02*
X141762381Y-83465771D01*
X141762381Y-83465771D02*
X141905238Y-83465771D01*
X141905238Y-83465771D02*
X142000476Y-83513390D01*
X142000476Y-83513390D02*
X142048095Y-83561009D01*
X142048095Y-83561009D02*
X142095714Y-83656247D01*
X142095714Y-83656247D02*
X142095714Y-83894342D01*
X142095714Y-83894342D02*
X142048095Y-83989580D01*
X142048095Y-83989580D02*
X142000476Y-84037200D01*
X142000476Y-84037200D02*
X141905238Y-84084819D01*
X141905238Y-84084819D02*
X141619524Y-84084819D01*
X141619524Y-84084819D02*
X141524286Y-84037200D01*
X141524286Y-84037200D02*
X141476667Y-83989580D01*
X162666666Y-108784819D02*
X162666666Y-109499104D01*
X162666666Y-109499104D02*
X162619047Y-109641961D01*
X162619047Y-109641961D02*
X162523809Y-109737200D01*
X162523809Y-109737200D02*
X162380952Y-109784819D01*
X162380952Y-109784819D02*
X162285714Y-109784819D01*
X163047619Y-108784819D02*
X163666666Y-108784819D01*
X163666666Y-108784819D02*
X163333333Y-109165771D01*
X163333333Y-109165771D02*
X163476190Y-109165771D01*
X163476190Y-109165771D02*
X163571428Y-109213390D01*
X163571428Y-109213390D02*
X163619047Y-109261009D01*
X163619047Y-109261009D02*
X163666666Y-109356247D01*
X163666666Y-109356247D02*
X163666666Y-109594342D01*
X163666666Y-109594342D02*
X163619047Y-109689580D01*
X163619047Y-109689580D02*
X163571428Y-109737200D01*
X163571428Y-109737200D02*
X163476190Y-109784819D01*
X163476190Y-109784819D02*
X163190476Y-109784819D01*
X163190476Y-109784819D02*
X163095238Y-109737200D01*
X163095238Y-109737200D02*
X163047619Y-109689580D01*
X109088095Y-110454819D02*
X109088095Y-111264342D01*
X109088095Y-111264342D02*
X109135714Y-111359580D01*
X109135714Y-111359580D02*
X109183333Y-111407200D01*
X109183333Y-111407200D02*
X109278571Y-111454819D01*
X109278571Y-111454819D02*
X109469047Y-111454819D01*
X109469047Y-111454819D02*
X109564285Y-111407200D01*
X109564285Y-111407200D02*
X109611904Y-111359580D01*
X109611904Y-111359580D02*
X109659523Y-111264342D01*
X109659523Y-111264342D02*
X109659523Y-110454819D01*
X110611904Y-110454819D02*
X110135714Y-110454819D01*
X110135714Y-110454819D02*
X110088095Y-110931009D01*
X110088095Y-110931009D02*
X110135714Y-110883390D01*
X110135714Y-110883390D02*
X110230952Y-110835771D01*
X110230952Y-110835771D02*
X110469047Y-110835771D01*
X110469047Y-110835771D02*
X110564285Y-110883390D01*
X110564285Y-110883390D02*
X110611904Y-110931009D01*
X110611904Y-110931009D02*
X110659523Y-111026247D01*
X110659523Y-111026247D02*
X110659523Y-111264342D01*
X110659523Y-111264342D02*
X110611904Y-111359580D01*
X110611904Y-111359580D02*
X110564285Y-111407200D01*
X110564285Y-111407200D02*
X110469047Y-111454819D01*
X110469047Y-111454819D02*
X110230952Y-111454819D01*
X110230952Y-111454819D02*
X110135714Y-111407200D01*
X110135714Y-111407200D02*
X110088095Y-111359580D01*
D11*
%TO.C,U3*%
X92600000Y-84325000D02*
X92600000Y-84175000D01*
X93240000Y-84175000D02*
X92600000Y-84175000D01*
X93240000Y-86875000D02*
X92800000Y-86875000D01*
X94775000Y-84450000D02*
X94775000Y-84300000D01*
X94800000Y-84175000D02*
X94160000Y-84175000D01*
X94800000Y-86875000D02*
X94160000Y-86875000D01*
X94800000Y-86875000D02*
X94800000Y-86725000D01*
X92600000Y-87235000D02*
X92240000Y-86875000D01*
X92600000Y-86875000D01*
X92600000Y-87235000D01*
G36*
X92600000Y-87235000D02*
G01*
X92240000Y-86875000D01*
X92600000Y-86875000D01*
X92600000Y-87235000D01*
G37*
D12*
%TO.C,J1*%
X161670000Y-79590000D02*
X163000000Y-79590000D01*
X161670000Y-80920000D02*
X161670000Y-79590000D01*
X161670000Y-82190000D02*
X161670000Y-87330000D01*
X161670000Y-82190000D02*
X164330000Y-82190000D01*
X161670000Y-87330000D02*
X164330000Y-87330000D01*
X164330000Y-82190000D02*
X164330000Y-87330000D01*
%TO.C,R5*%
X137920000Y-92080000D02*
X144460000Y-92080000D01*
X137920000Y-92410000D02*
X137920000Y-92080000D01*
X137920000Y-94490000D02*
X137920000Y-94820000D01*
X137920000Y-94820000D02*
X144460000Y-94820000D01*
X144460000Y-92080000D02*
X144460000Y-92410000D01*
X144460000Y-94820000D02*
X144460000Y-94490000D01*
%TO.C,U1*%
X104500000Y-92440000D02*
X104500000Y-67010000D01*
X104500000Y-92440000D02*
X107040000Y-92440000D01*
X107040000Y-92440000D02*
X107040000Y-99340000D01*
X107040000Y-99340000D02*
X130360000Y-99340000D01*
X128240000Y-64880000D02*
X106630000Y-64880000D01*
X130360000Y-99340000D02*
X130360000Y-67010000D01*
X104500000Y-67010000D02*
G75*
G02*
X106630000Y-64880000I2130002J-2D01*
G01*
X128230000Y-64880000D02*
G75*
G02*
X130360000Y-67010000I0J-2130000D01*
G01*
D10*
X104095000Y-73220000D02*
X103460000Y-73855000D01*
X103460000Y-72585000D01*
X104095000Y-73220000D01*
G36*
X104095000Y-73220000D02*
G01*
X103460000Y-73855000D01*
X103460000Y-72585000D01*
X104095000Y-73220000D01*
G37*
D12*
%TO.C,R1*%
X156200000Y-110600000D02*
X162200000Y-110600000D01*
X156200000Y-119400000D02*
X162200000Y-119400000D01*
X156200000Y-119400000D02*
G75*
G02*
X156167350Y-110622440I3000000J4400000D01*
G01*
X162200000Y-110600000D02*
G75*
G02*
X162232650Y-119377560I-3000000J-4400000D01*
G01*
%TO.C,R4*%
X137920000Y-88030000D02*
X144460000Y-88030000D01*
X137920000Y-88360000D02*
X137920000Y-88030000D01*
X137920000Y-90440000D02*
X137920000Y-90770000D01*
X137920000Y-90770000D02*
X144460000Y-90770000D01*
X144460000Y-88030000D02*
X144460000Y-88360000D01*
X144460000Y-90770000D02*
X144460000Y-90440000D01*
%TO.C,D1*%
X93030000Y-109700000D02*
X93030000Y-115140000D01*
X93030000Y-115140000D02*
X95970000Y-115140000D01*
X94500000Y-108680000D02*
X94500000Y-109700000D01*
X94500000Y-116160000D02*
X94500000Y-115140000D01*
X95970000Y-109700000D02*
X93030000Y-109700000D01*
X95970000Y-110480000D02*
X93030000Y-110480000D01*
X95970000Y-110600000D02*
X93030000Y-110600000D01*
X95970000Y-110720000D02*
X93030000Y-110720000D01*
X95970000Y-115140000D02*
X95970000Y-109700000D01*
%TO.C,R2*%
X138040000Y-81130000D02*
X144580000Y-81130000D01*
X138040000Y-81460000D02*
X138040000Y-81130000D01*
X138040000Y-83540000D02*
X138040000Y-83870000D01*
X138040000Y-83870000D02*
X144580000Y-83870000D01*
X144580000Y-81130000D02*
X144580000Y-81460000D01*
X144580000Y-83870000D02*
X144580000Y-83540000D01*
%TO.C,C2*%
X123880000Y-116130000D02*
X123880000Y-116575000D01*
X123880000Y-116130000D02*
X130120000Y-116130000D01*
X123880000Y-118425000D02*
X123880000Y-118870000D01*
X123880000Y-118870000D02*
X130120000Y-118870000D01*
X130120000Y-116130000D02*
X130120000Y-116575000D01*
X130120000Y-118425000D02*
X130120000Y-118870000D01*
%TO.C,J4*%
X161670000Y-73230000D02*
X161670000Y-65550000D01*
X164330000Y-65550000D02*
X161670000Y-65550000D01*
X164330000Y-73230000D02*
X161670000Y-73230000D01*
X164330000Y-73230000D02*
X164330000Y-65550000D01*
X164330000Y-74500000D02*
X164330000Y-75830000D01*
X164330000Y-75830000D02*
X163000000Y-75830000D01*
%TO.C,U4*%
X141975000Y-113535000D02*
X140025000Y-113535000D01*
X141975000Y-113535000D02*
X143925000Y-113535000D01*
X141975000Y-118655000D02*
X140025000Y-118655000D01*
X141975000Y-118655000D02*
X143925000Y-118655000D01*
X139275000Y-113630000D02*
X139035000Y-113300000D01*
X139515000Y-113300000D01*
X139275000Y-113630000D01*
G36*
X139275000Y-113630000D02*
G01*
X139035000Y-113300000D01*
X139515000Y-113300000D01*
X139275000Y-113630000D01*
G37*
%TO.C,J2*%
X161670000Y-93730000D02*
X161670000Y-91130000D01*
X164330000Y-91130000D02*
X161670000Y-91130000D01*
X164330000Y-93730000D02*
X161670000Y-93730000D01*
X164330000Y-93730000D02*
X164330000Y-91130000D01*
X164330000Y-95000000D02*
X164330000Y-96330000D01*
X164330000Y-96330000D02*
X163000000Y-96330000D01*
%TO.C,C1*%
X123880000Y-109630000D02*
X123880000Y-110075000D01*
X123880000Y-109630000D02*
X130120000Y-109630000D01*
X123880000Y-111925000D02*
X123880000Y-112370000D01*
X123880000Y-112370000D02*
X130120000Y-112370000D01*
X130120000Y-109630000D02*
X130120000Y-110075000D01*
X130120000Y-111925000D02*
X130120000Y-112370000D01*
%TO.C,R6*%
X137920000Y-96130000D02*
X144460000Y-96130000D01*
X137920000Y-96460000D02*
X137920000Y-96130000D01*
X137920000Y-98540000D02*
X137920000Y-98870000D01*
X137920000Y-98870000D02*
X144460000Y-98870000D01*
X144460000Y-96130000D02*
X144460000Y-96460000D01*
X144460000Y-98870000D02*
X144460000Y-98540000D01*
%TO.C,U2*%
X91840000Y-64780000D02*
X91840000Y-66780000D01*
X91840000Y-64780000D02*
X93450000Y-64780000D01*
X92120000Y-77320000D02*
X92120000Y-65070000D01*
X92130000Y-65060000D02*
X97870000Y-65060000D01*
X97880000Y-65060000D02*
X97880000Y-77320000D01*
X97880000Y-77320000D02*
X92120000Y-77320000D01*
%TO.C,R3*%
X138040000Y-84630000D02*
X144580000Y-84630000D01*
X138040000Y-84960000D02*
X138040000Y-84630000D01*
X138040000Y-87040000D02*
X138040000Y-87370000D01*
X138040000Y-87370000D02*
X144580000Y-87370000D01*
X144580000Y-84630000D02*
X144580000Y-84960000D01*
X144580000Y-87370000D02*
X144580000Y-87040000D01*
%TO.C,J3*%
X161670000Y-105730000D02*
X161670000Y-100590000D01*
X164330000Y-100590000D02*
X161670000Y-100590000D01*
X164330000Y-105730000D02*
X161670000Y-105730000D01*
X164330000Y-105730000D02*
X164330000Y-100590000D01*
X164330000Y-107000000D02*
X164330000Y-108330000D01*
X164330000Y-108330000D02*
X163000000Y-108330000D01*
%TO.C,U5*%
X108000000Y-112090000D02*
X111760000Y-112090000D01*
X108000000Y-118910000D02*
X111760000Y-118910000D01*
X111760000Y-112090000D02*
X111760000Y-113350000D01*
X111760000Y-118910000D02*
X111760000Y-117650000D01*
X106720000Y-112190000D02*
X106480000Y-111860000D01*
X106960000Y-111860000D01*
X106720000Y-112190000D01*
G36*
X106720000Y-112190000D02*
G01*
X106480000Y-111860000D01*
X106960000Y-111860000D01*
X106720000Y-112190000D01*
G37*
%TD*%
M02*
