%TF.GenerationSoftware,KiCad,Pcbnew,9.0.0*%
%TF.CreationDate,2025-04-01T09:39:50+05:30*%
%TF.ProjectId,WMS,574d532e-6b69-4636-9164-5f7063625858,rev?*%
%TF.SameCoordinates,Original*%
%TF.FileFunction,Copper,L2,Bot*%
%TF.FilePolarity,Positive*%
%FSLAX46Y46*%
G04 Gerber Fmt 4.6, Leading zero omitted, Abs format (unit mm)*
G04 Created by KiCad (PCBNEW 9.0.0) date 2025-04-01 09:39:50*
%MOMM*%
%LPD*%
G01*
G04 APERTURE LIST*
%TA.AperFunction,Conductor*%
%ADD10C,0.200000*%
%TD*%
%TA.AperFunction,ComponentPad*%
%ADD11R,1.700000X1.700000*%
%TD*%
%TA.AperFunction,ComponentPad*%
%ADD12O,1.700000X1.700000*%
%TD*%
%TA.AperFunction,ComponentPad*%
%ADD13C,1.600000*%
%TD*%
%TA.AperFunction,ComponentPad*%
%ADD14O,1.600000X1.600000*%
%TD*%
%TA.AperFunction,ComponentPad*%
%ADD15R,2.000000X2.000000*%
%TD*%
%TA.AperFunction,ComponentPad*%
%ADD16O,2.000000X1.600000*%
%TD*%
%TA.AperFunction,ComponentPad*%
%ADD17R,2.200000X2.200000*%
%TD*%
%TA.AperFunction,ComponentPad*%
%ADD18O,2.200000X2.200000*%
%TD*%
%TA.AperFunction,ComponentPad*%
%ADD19R,1.500000X1.500000*%
%TD*%
%TA.AperFunction,ComponentPad*%
%ADD20C,1.500000*%
%TD*%
%TA.AperFunction,ViaPad*%
%ADD21C,0.600000*%
%TD*%
G04 APERTURE END LIST*
D10*
%TO.N,/D5*%
X152500000Y-89500000D02*
X150000000Y-89500000D01*
%TO.N,/D6*%
X104000000Y-83500000D02*
X103500000Y-67000000D01*
%TO.N,/3V3*%
X91500000Y-67500000D02*
X96000000Y-82500000D01*
%TO.N,GND*%
X106500000Y-111500000D02*
X129500000Y-109000000D01*
%TO.N,/D6*%
X168500000Y-102000000D02*
X163000000Y-99500000D01*
%TO.N,GND*%
X147000000Y-82500000D02*
X160500000Y-86000000D01*
%TO.N,/D7*%
X92000000Y-83500000D02*
X92000000Y-85000000D01*
%TO.N,GND*%
X133500000Y-80000000D02*
X133500000Y-88500000D01*
%TO.N,/A0*%
X141500000Y-80000000D02*
X141500000Y-101500000D01*
%TO.N,/D5*%
X139500000Y-107500000D02*
X125000000Y-107500000D01*
%TO.N,/D7*%
X97000000Y-83500000D02*
X92000000Y-83500000D01*
%TO.N,GND*%
X95500000Y-89500000D02*
X92000000Y-89500000D01*
%TO.N,/D7*%
X97000000Y-85500000D02*
X97000000Y-83500000D01*
%TO.N,/A0*%
X141500000Y-101500000D02*
X152500000Y-101500000D01*
X137500000Y-80000000D02*
X141500000Y-80000000D01*
%TO.N,GND*%
X92000000Y-89500000D02*
X92000000Y-86000000D01*
%TO.N,/5V*%
X168500000Y-107500000D02*
X165500000Y-107000000D01*
%TO.N,GND*%
X95500000Y-86000000D02*
X95500000Y-89500000D01*
%TD*%
D11*
%TO.P,J1,1,Pin_1*%
%TO.N,/3V3*%
X163000000Y-80920000D03*
D12*
%TO.P,J1,2,Pin_2*%
%TO.N,Net-(J1-Pin_2)*%
X163000000Y-83460000D03*
%TO.P,J1,3,Pin_3*%
%TO.N,GND*%
X163000000Y-86000000D03*
%TD*%
D13*
%TO.P,R5,1*%
%TO.N,Net-(U4A--)*%
X137380000Y-93450000D03*
D14*
%TO.P,R5,2*%
%TO.N,/3V3*%
X145000000Y-93450000D03*
%TD*%
D15*
%TO.P,U1,1,~{RST}*%
%TO.N,unconnected-(U1-~{RST}-Pad1)*%
X106000000Y-73220000D03*
D16*
%TO.P,U1,2,A0*%
%TO.N,/A0*%
X106000000Y-75760000D03*
%TO.P,U1,3,D0*%
%TO.N,unconnected-(U1-D0-Pad3)*%
X106000000Y-78300000D03*
%TO.P,U1,4,SCK/D5*%
%TO.N,/D5*%
X106000000Y-80840000D03*
%TO.P,U1,5,MISO/D6*%
%TO.N,/D6*%
X106000000Y-83380000D03*
%TO.P,U1,6,MOSI/D7*%
%TO.N,/D7*%
X106000000Y-85920000D03*
%TO.P,U1,7,CS/D8*%
%TO.N,/D8*%
X106000000Y-88460000D03*
%TO.P,U1,8,3V3*%
%TO.N,/3V3*%
X106000000Y-91000000D03*
%TO.P,U1,9,5V*%
%TO.N,/5V*%
X128860000Y-91000000D03*
%TO.P,U1,10,GND*%
%TO.N,GND*%
X128860000Y-88460000D03*
%TO.P,U1,11,D4*%
%TO.N,/D4*%
X128860000Y-85920000D03*
%TO.P,U1,12,D3*%
%TO.N,unconnected-(U1-D3-Pad12)*%
X128860000Y-83380000D03*
%TO.P,U1,13,SDA/D2*%
%TO.N,/D2*%
X128860000Y-80840000D03*
%TO.P,U1,14,SCL/D1*%
%TO.N,/D1*%
X128860000Y-78300000D03*
%TO.P,U1,15,RX*%
%TO.N,unconnected-(U1-RX-Pad15)*%
X128860000Y-75760000D03*
%TO.P,U1,16,TX*%
%TO.N,unconnected-(U1-TX-Pad16)*%
X128860000Y-73220000D03*
%TD*%
D13*
%TO.P,R1,1*%
%TO.N,/3V3*%
X155400000Y-115000000D03*
%TO.P,R1,2*%
%TO.N,/A0*%
X163000000Y-115000000D03*
%TD*%
%TO.P,R4,1*%
%TO.N,/3V3*%
X137380000Y-89400000D03*
D14*
%TO.P,R4,2*%
%TO.N,/D5*%
X145000000Y-89400000D03*
%TD*%
D17*
%TO.P,D1,1,K*%
%TO.N,+5V*%
X94500000Y-107340000D03*
D18*
%TO.P,D1,2,A*%
%TO.N,/5V*%
X94500000Y-117500000D03*
%TD*%
D13*
%TO.P,R2,1*%
%TO.N,/A0*%
X137500000Y-82500000D03*
D14*
%TO.P,R2,2*%
%TO.N,GND*%
X145120000Y-82500000D03*
%TD*%
D13*
%TO.P,C2,1*%
%TO.N,/5V*%
X124500000Y-117500000D03*
%TO.P,C2,2*%
%TO.N,GND*%
X129500000Y-117500000D03*
%TD*%
D11*
%TO.P,J4,1,Pin_1*%
%TO.N,/3V3*%
X163000000Y-74500000D03*
D12*
%TO.P,J4,2,Pin_2*%
%TO.N,GND*%
X163000000Y-71960000D03*
%TO.P,J4,3,Pin_3*%
%TO.N,/D2*%
X163000000Y-69420000D03*
%TO.P,J4,4,Pin_4*%
%TO.N,/D1*%
X163000000Y-66880000D03*
%TD*%
D11*
%TO.P,J2,1,Pin_1*%
%TO.N,/D5*%
X163000000Y-95000000D03*
D12*
%TO.P,J2,2,Pin_2*%
%TO.N,GND*%
X163000000Y-92460000D03*
%TD*%
D13*
%TO.P,C1,1*%
%TO.N,Net-(U5-VO)*%
X124500000Y-111000000D03*
%TO.P,C1,2*%
%TO.N,GND*%
X129500000Y-111000000D03*
%TD*%
%TO.P,R6,1*%
%TO.N,GND*%
X137380000Y-97500000D03*
D14*
%TO.P,R6,2*%
%TO.N,Net-(U4A--)*%
X145000000Y-97500000D03*
%TD*%
D19*
%TO.P,U2,1,VDD*%
%TO.N,/3V3*%
X95000000Y-67380000D03*
D20*
%TO.P,U2,2,DATA*%
%TO.N,/D4*%
X95000000Y-69920000D03*
%TO.P,U2,3,NC*%
%TO.N,unconnected-(U2-NC-Pad3)*%
X95000000Y-72460000D03*
%TO.P,U2,4,GND*%
%TO.N,GND*%
X95000000Y-75000000D03*
%TD*%
D13*
%TO.P,R3,1*%
%TO.N,/3V3*%
X137500000Y-86000000D03*
D14*
%TO.P,R3,2*%
%TO.N,/D4*%
X145120000Y-86000000D03*
%TD*%
D11*
%TO.P,J3,1,Pin_1*%
%TO.N,/5V*%
X163000000Y-107000000D03*
D12*
%TO.P,J3,2,Pin_2*%
%TO.N,GND*%
X163000000Y-104460000D03*
%TO.P,J3,3,Pin_3*%
%TO.N,/D6*%
X163000000Y-101920000D03*
%TD*%
D21*
%TO.N,GND*%
X160500000Y-86000000D03*
X92000000Y-86000000D03*
X133500000Y-80000000D03*
X92000000Y-89500000D03*
X95500000Y-86000000D03*
X129500000Y-109000000D03*
X133500000Y-88500000D03*
X95500000Y-89500000D03*
X147000000Y-82500000D03*
X106500000Y-111500000D03*
%TO.N,/5V*%
X165500000Y-107000000D03*
X168500000Y-107500000D03*
%TO.N,/3V3*%
X91500000Y-67500000D03*
X96000000Y-82500000D03*
%TO.N,/D5*%
X152500000Y-89500000D03*
X139500000Y-107500000D03*
X150000000Y-89500000D03*
X125000000Y-107500000D03*
%TO.N,/D6*%
X104000000Y-83500000D03*
X163000000Y-99500000D03*
X168500000Y-102000000D03*
X103500000Y-67000000D03*
%TO.N,/A0*%
X137500000Y-80000000D03*
X141500000Y-101500000D03*
X141500000Y-80000000D03*
X152500000Y-101500000D03*
%TO.N,/D7*%
X92000000Y-85000000D03*
X97000000Y-83500000D03*
X97000000Y-85500000D03*
X92000000Y-83500000D03*
%TD*%
M02*
