%TF.GenerationSoftware,KiCad,Pcbnew,9.0.0*%
%TF.CreationDate,2025-04-01T09:39:50+05:30*%
%TF.ProjectId,WMS,574d532e-6b69-4636-9164-5f7063625858,rev?*%
%TF.SameCoordinates,Original*%
%TF.FileFunction,Copper,L1,Top*%
%TF.FilePolarity,Positive*%
%FSLAX46Y46*%
G04 Gerber Fmt 4.6, Leading zero omitted, Abs format (unit mm)*
G04 Created by KiCad (PCBNEW 9.0.0) date 2025-04-01 09:39:50*
%MOMM*%
%LPD*%
G01*
G04 APERTURE LIST*
G04 Aperture macros list*
%AMRoundRect*
0 Rectangle with rounded corners*
0 $1 Rounding radius*
0 $2 $3 $4 $5 $6 $7 $8 $9 X,Y pos of 4 corners*
0 Add a 4 corners polygon primitive as box body*
4,1,4,$2,$3,$4,$5,$6,$7,$8,$9,$2,$3,0*
0 Add four circle primitives for the rounded corners*
1,1,$1+$1,$2,$3*
1,1,$1+$1,$4,$5*
1,1,$1+$1,$6,$7*
1,1,$1+$1,$8,$9*
0 Add four rect primitives between the rounded corners*
20,1,$1+$1,$2,$3,$4,$5,0*
20,1,$1+$1,$4,$5,$6,$7,0*
20,1,$1+$1,$6,$7,$8,$9,0*
20,1,$1+$1,$8,$9,$2,$3,0*%
G04 Aperture macros list end*
%TA.AperFunction,Conductor*%
%ADD10C,0.200000*%
%TD*%
%TA.AperFunction,SMDPad,CuDef*%
%ADD11R,0.500000X0.350000*%
%TD*%
%TA.AperFunction,ComponentPad*%
%ADD12R,1.700000X1.700000*%
%TD*%
%TA.AperFunction,ComponentPad*%
%ADD13O,1.700000X1.700000*%
%TD*%
%TA.AperFunction,ComponentPad*%
%ADD14C,1.600000*%
%TD*%
%TA.AperFunction,ComponentPad*%
%ADD15O,1.600000X1.600000*%
%TD*%
%TA.AperFunction,ComponentPad*%
%ADD16R,2.000000X2.000000*%
%TD*%
%TA.AperFunction,ComponentPad*%
%ADD17O,2.000000X1.600000*%
%TD*%
%TA.AperFunction,ComponentPad*%
%ADD18R,2.200000X2.200000*%
%TD*%
%TA.AperFunction,ComponentPad*%
%ADD19O,2.200000X2.200000*%
%TD*%
%TA.AperFunction,SMDPad,CuDef*%
%ADD20RoundRect,0.150000X-0.825000X-0.150000X0.825000X-0.150000X0.825000X0.150000X-0.825000X0.150000X0*%
%TD*%
%TA.AperFunction,ComponentPad*%
%ADD21R,1.500000X1.500000*%
%TD*%
%TA.AperFunction,ComponentPad*%
%ADD22C,1.500000*%
%TD*%
%TA.AperFunction,SMDPad,CuDef*%
%ADD23RoundRect,0.375000X-0.625000X-0.375000X0.625000X-0.375000X0.625000X0.375000X-0.625000X0.375000X0*%
%TD*%
%TA.AperFunction,SMDPad,CuDef*%
%ADD24RoundRect,0.500000X-0.500000X-1.400000X0.500000X-1.400000X0.500000X1.400000X-0.500000X1.400000X0*%
%TD*%
%TA.AperFunction,ViaPad*%
%ADD25C,0.600000*%
%TD*%
G04 APERTURE END LIST*
D10*
%TO.N,/D6*%
X106000000Y-83500000D02*
X104000000Y-83500000D01*
%TO.N,/A0*%
X137500000Y-80000000D02*
X137500000Y-82500000D01*
%TO.N,/D5*%
X125000000Y-107500000D02*
X118000000Y-107500000D01*
%TO.N,/A0*%
X152500000Y-101500000D02*
X163000000Y-115000000D01*
%TO.N,/D5*%
X145000000Y-89500000D02*
X150000000Y-89500000D01*
%TO.N,/3V3*%
X96000000Y-82500000D02*
X95500000Y-85000000D01*
%TO.N,/5V*%
X163000000Y-107000000D02*
X165500000Y-107000000D01*
%TO.N,GND*%
X129500000Y-109000000D02*
X129500000Y-111000000D01*
%TO.N,/D7*%
X103500000Y-86000000D02*
X106000000Y-86000000D01*
%TO.N,GND*%
X95500000Y-86000000D02*
X94500000Y-86000000D01*
X133500000Y-88500000D02*
X129000000Y-88500000D01*
%TO.N,/D7*%
X103500000Y-86000000D02*
X97000000Y-85500000D01*
%TO.N,/D5*%
X139500000Y-107500000D02*
X139500000Y-114000000D01*
%TO.N,GND*%
X106500000Y-111500000D02*
X106500000Y-113000000D01*
X145000000Y-82500000D02*
X147000000Y-82500000D01*
%TO.N,/3V3*%
X95000000Y-67380000D02*
X91500000Y-67380000D01*
%TO.N,/D7*%
X92000000Y-85000000D02*
X93000000Y-85000000D01*
%TO.N,/D6*%
X163000000Y-102000000D02*
X163000000Y-99500000D01*
%TO.N,GND*%
X160500000Y-86000000D02*
X163000000Y-86000000D01*
%TO.N,/D5*%
X152500000Y-89500000D02*
X163000000Y-95000000D01*
%TO.N,GND*%
X92000000Y-86000000D02*
X93000000Y-86500000D01*
%TD*%
D11*
%TO.P,U3,1,GND*%
%TO.N,GND*%
X92900000Y-86500000D03*
%TO.P,U3,2,CSB*%
%TO.N,/D8*%
X92900000Y-85850000D03*
%TO.P,U3,3,SDI*%
%TO.N,/D7*%
X92900000Y-85200000D03*
%TO.P,U3,4,SCK*%
%TO.N,/D5*%
X92900000Y-84550000D03*
%TO.P,U3,5,SDO*%
%TO.N,/D6*%
X94500000Y-84550000D03*
%TO.P,U3,6,VDDIO*%
%TO.N,/3V3*%
X94500000Y-85200000D03*
%TO.P,U3,7,GND*%
%TO.N,GND*%
X94500000Y-85850000D03*
%TO.P,U3,8,VDD*%
%TO.N,/3V3*%
X94500000Y-86500000D03*
%TD*%
D12*
%TO.P,J1,1,Pin_1*%
%TO.N,/3V3*%
X163000000Y-80920000D03*
D13*
%TO.P,J1,2,Pin_2*%
%TO.N,Net-(J1-Pin_2)*%
X163000000Y-83460000D03*
%TO.P,J1,3,Pin_3*%
%TO.N,GND*%
X163000000Y-86000000D03*
%TD*%
D14*
%TO.P,R5,1*%
%TO.N,Net-(U4A--)*%
X137380000Y-93450000D03*
D15*
%TO.P,R5,2*%
%TO.N,/3V3*%
X145000000Y-93450000D03*
%TD*%
D16*
%TO.P,U1,1,~{RST}*%
%TO.N,unconnected-(U1-~{RST}-Pad1)*%
X106000000Y-73220000D03*
D17*
%TO.P,U1,2,A0*%
%TO.N,/A0*%
X106000000Y-75760000D03*
%TO.P,U1,3,D0*%
%TO.N,unconnected-(U1-D0-Pad3)*%
X106000000Y-78300000D03*
%TO.P,U1,4,SCK/D5*%
%TO.N,/D5*%
X106000000Y-80840000D03*
%TO.P,U1,5,MISO/D6*%
%TO.N,/D6*%
X106000000Y-83380000D03*
%TO.P,U1,6,MOSI/D7*%
%TO.N,/D7*%
X106000000Y-85920000D03*
%TO.P,U1,7,CS/D8*%
%TO.N,/D8*%
X106000000Y-88460000D03*
%TO.P,U1,8,3V3*%
%TO.N,/3V3*%
X106000000Y-91000000D03*
%TO.P,U1,9,5V*%
%TO.N,/5V*%
X128860000Y-91000000D03*
%TO.P,U1,10,GND*%
%TO.N,GND*%
X128860000Y-88460000D03*
%TO.P,U1,11,D4*%
%TO.N,/D4*%
X128860000Y-85920000D03*
%TO.P,U1,12,D3*%
%TO.N,unconnected-(U1-D3-Pad12)*%
X128860000Y-83380000D03*
%TO.P,U1,13,SDA/D2*%
%TO.N,/D2*%
X128860000Y-80840000D03*
%TO.P,U1,14,SCL/D1*%
%TO.N,/D1*%
X128860000Y-78300000D03*
%TO.P,U1,15,RX*%
%TO.N,unconnected-(U1-RX-Pad15)*%
X128860000Y-75760000D03*
%TO.P,U1,16,TX*%
%TO.N,unconnected-(U1-TX-Pad16)*%
X128860000Y-73220000D03*
%TD*%
D14*
%TO.P,R1,1*%
%TO.N,/3V3*%
X155400000Y-115000000D03*
%TO.P,R1,2*%
%TO.N,/A0*%
X163000000Y-115000000D03*
%TD*%
%TO.P,R4,1*%
%TO.N,/3V3*%
X137380000Y-89400000D03*
D15*
%TO.P,R4,2*%
%TO.N,/D5*%
X145000000Y-89400000D03*
%TD*%
D18*
%TO.P,D1,1,K*%
%TO.N,+5V*%
X94500000Y-107340000D03*
D19*
%TO.P,D1,2,A*%
%TO.N,/5V*%
X94500000Y-117500000D03*
%TD*%
D14*
%TO.P,R2,1*%
%TO.N,/A0*%
X137500000Y-82500000D03*
D15*
%TO.P,R2,2*%
%TO.N,GND*%
X145120000Y-82500000D03*
%TD*%
D14*
%TO.P,C2,1*%
%TO.N,/5V*%
X124500000Y-117500000D03*
%TO.P,C2,2*%
%TO.N,GND*%
X129500000Y-117500000D03*
%TD*%
D12*
%TO.P,J4,1,Pin_1*%
%TO.N,/3V3*%
X163000000Y-74500000D03*
D13*
%TO.P,J4,2,Pin_2*%
%TO.N,GND*%
X163000000Y-71960000D03*
%TO.P,J4,3,Pin_3*%
%TO.N,/D2*%
X163000000Y-69420000D03*
%TO.P,J4,4,Pin_4*%
%TO.N,/D1*%
X163000000Y-66880000D03*
%TD*%
D20*
%TO.P,U4,1*%
%TO.N,/D5*%
X139500000Y-114190000D03*
%TO.P,U4,2,-*%
%TO.N,Net-(U4A--)*%
X139500000Y-115460000D03*
%TO.P,U4,3,+*%
%TO.N,Net-(J1-Pin_2)*%
X139500000Y-116730000D03*
%TO.P,U4,4,V-*%
%TO.N,GND*%
X139500000Y-118000000D03*
%TO.P,U4,5,+*%
%TO.N,unconnected-(U4B-+-Pad5)*%
X144450000Y-118000000D03*
%TO.P,U4,6,-*%
%TO.N,unconnected-(U4B---Pad6)*%
X144450000Y-116730000D03*
%TO.P,U4,7*%
%TO.N,unconnected-(U4-Pad7)*%
X144450000Y-115460000D03*
%TO.P,U4,8,V+*%
%TO.N,/3V3*%
X144450000Y-114190000D03*
%TD*%
D12*
%TO.P,J2,1,Pin_1*%
%TO.N,/D5*%
X163000000Y-95000000D03*
D13*
%TO.P,J2,2,Pin_2*%
%TO.N,GND*%
X163000000Y-92460000D03*
%TD*%
D14*
%TO.P,C1,1*%
%TO.N,Net-(U5-VO)*%
X124500000Y-111000000D03*
%TO.P,C1,2*%
%TO.N,GND*%
X129500000Y-111000000D03*
%TD*%
%TO.P,R6,1*%
%TO.N,GND*%
X137380000Y-97500000D03*
D15*
%TO.P,R6,2*%
%TO.N,Net-(U4A--)*%
X145000000Y-97500000D03*
%TD*%
D21*
%TO.P,U2,1,VDD*%
%TO.N,/3V3*%
X95000000Y-67380000D03*
D22*
%TO.P,U2,2,DATA*%
%TO.N,/D4*%
X95000000Y-69920000D03*
%TO.P,U2,3,NC*%
%TO.N,unconnected-(U2-NC-Pad3)*%
X95000000Y-72460000D03*
%TO.P,U2,4,GND*%
%TO.N,GND*%
X95000000Y-75000000D03*
%TD*%
D14*
%TO.P,R3,1*%
%TO.N,/3V3*%
X137500000Y-86000000D03*
D15*
%TO.P,R3,2*%
%TO.N,/D4*%
X145120000Y-86000000D03*
%TD*%
D12*
%TO.P,J3,1,Pin_1*%
%TO.N,/5V*%
X163000000Y-107000000D03*
D13*
%TO.P,J3,2,Pin_2*%
%TO.N,GND*%
X163000000Y-104460000D03*
%TO.P,J3,3,Pin_3*%
%TO.N,/D6*%
X163000000Y-101920000D03*
%TD*%
D23*
%TO.P,U5,1,GND*%
%TO.N,GND*%
X106700000Y-113200000D03*
%TO.P,U5,2,VO*%
%TO.N,Net-(U5-VO)*%
X106700000Y-115500000D03*
D24*
X113000000Y-115500000D03*
D23*
%TO.P,U5,3,VI*%
%TO.N,/5V*%
X106700000Y-117800000D03*
%TD*%
D25*
%TO.N,GND*%
X160500000Y-86000000D03*
X92000000Y-86000000D03*
X133500000Y-80000000D03*
X92000000Y-89500000D03*
X95500000Y-86000000D03*
X129500000Y-109000000D03*
X133500000Y-88500000D03*
X95500000Y-89500000D03*
X147000000Y-82500000D03*
X106500000Y-111500000D03*
%TO.N,/5V*%
X165500000Y-107000000D03*
X168500000Y-107500000D03*
%TO.N,/3V3*%
X91500000Y-67500000D03*
X96000000Y-82500000D03*
%TO.N,/D5*%
X152500000Y-89500000D03*
X139500000Y-107500000D03*
X150000000Y-89500000D03*
X125000000Y-107500000D03*
%TO.N,/D6*%
X104000000Y-83500000D03*
X163000000Y-99500000D03*
X168500000Y-102000000D03*
X103500000Y-67000000D03*
%TO.N,/A0*%
X137500000Y-80000000D03*
X141500000Y-101500000D03*
X141500000Y-80000000D03*
X152500000Y-101500000D03*
%TO.N,/D7*%
X92000000Y-85000000D03*
X97000000Y-83500000D03*
X97000000Y-85500000D03*
X92000000Y-83500000D03*
%TD*%
D10*
%TO.N,Net-(U5-VO)*%
X113000000Y-115500000D02*
X113500000Y-115500000D01*
X113500000Y-115500000D02*
X118000000Y-111000000D01*
X118000000Y-111000000D02*
X124500000Y-111000000D01*
X113000000Y-115500000D02*
X106700000Y-115500000D01*
%TO.N,GND*%
X92000000Y-86000000D02*
X91399000Y-86000000D01*
X145120000Y-82500000D02*
X145120000Y-79620000D01*
X129500000Y-111000000D02*
X129500000Y-117500000D01*
X164151000Y-103309000D02*
X164151000Y-93611000D01*
X165000000Y-81500000D02*
X164191000Y-82309000D01*
X163000000Y-104460000D02*
X164151000Y-103309000D01*
X161849000Y-84849000D02*
X163000000Y-86000000D01*
X129500000Y-104000000D02*
X136000000Y-97500000D01*
X95000000Y-75000000D02*
X91399000Y-78601000D01*
X165000000Y-73960000D02*
X165000000Y-81500000D01*
X163000000Y-71960000D02*
X165000000Y-73960000D01*
X91399000Y-78601000D02*
X91399000Y-86000000D01*
X164191000Y-82309000D02*
X162523240Y-82309000D01*
X136500000Y-78000000D02*
X135500000Y-78000000D01*
X164151000Y-93611000D02*
X163000000Y-92460000D01*
X91399000Y-97899000D02*
X106700000Y-113200000D01*
X139500000Y-118000000D02*
X130000000Y-118000000D01*
X143500000Y-78000000D02*
X136500000Y-78000000D01*
X130000000Y-118000000D02*
X129500000Y-117500000D01*
X161849000Y-82983240D02*
X161849000Y-84849000D01*
X162523240Y-82309000D02*
X161849000Y-82983240D01*
X129500000Y-109000000D02*
X129500000Y-104000000D01*
X135500000Y-78000000D02*
X133500000Y-80000000D01*
X163000000Y-92460000D02*
X163000000Y-86000000D01*
X136000000Y-97500000D02*
X136000000Y-95600000D01*
X136000000Y-95600000D02*
X128860000Y-88460000D01*
X145120000Y-79620000D02*
X143500000Y-78000000D01*
X91399000Y-86000000D02*
X91399000Y-97899000D01*
X136000000Y-97500000D02*
X137380000Y-97500000D01*
%TO.N,/5V*%
X126000000Y-116000000D02*
X126000000Y-93860000D01*
X106700000Y-117800000D02*
X94800000Y-117800000D01*
X126000000Y-93860000D02*
X128860000Y-91000000D01*
X124200000Y-117800000D02*
X124500000Y-117500000D01*
X128399000Y-117956050D02*
X130343950Y-119901000D01*
X124500000Y-117500000D02*
X126000000Y-116000000D01*
X94800000Y-117800000D02*
X94500000Y-117500000D01*
X165666100Y-119901000D02*
X168500000Y-117067100D01*
X128860000Y-91000000D02*
X128399000Y-91461000D01*
X130343950Y-119901000D02*
X165666100Y-119901000D01*
X168500000Y-117067100D02*
X168500000Y-107500000D01*
X106700000Y-117800000D02*
X124200000Y-117800000D01*
X128399000Y-91461000D02*
X128399000Y-117956050D01*
%TO.N,/3V3*%
X109641000Y-87359000D02*
X135339000Y-87359000D01*
X135339000Y-87359000D02*
X137380000Y-89400000D01*
X144950000Y-93450000D02*
X140900000Y-89400000D01*
X96101000Y-86248943D02*
X96101000Y-85751057D01*
X146101000Y-94551000D02*
X159732000Y-80920000D01*
X137380000Y-89400000D02*
X137380000Y-86120000D01*
X96101000Y-85751057D02*
X95448943Y-85099000D01*
X95359000Y-87359000D02*
X106656049Y-87359000D01*
X163000000Y-80920000D02*
X163000000Y-74500000D01*
X94601000Y-86601000D02*
X95748943Y-86601000D01*
X107500000Y-88202951D02*
X107500000Y-89500000D01*
X94500000Y-86500000D02*
X95359000Y-87359000D01*
X155400000Y-115000000D02*
X154590000Y-114190000D01*
X106656049Y-87359000D02*
X107500000Y-88202951D01*
X145000000Y-93450000D02*
X144950000Y-93450000D01*
X146101000Y-112539000D02*
X146101000Y-94551000D01*
X95448943Y-85099000D02*
X94601000Y-85099000D01*
X159732000Y-80920000D02*
X163000000Y-80920000D01*
X140900000Y-89400000D02*
X137380000Y-89400000D01*
X146101000Y-94551000D02*
X145000000Y-93450000D01*
X94601000Y-85099000D02*
X94500000Y-85200000D01*
X107500000Y-89500000D02*
X106000000Y-91000000D01*
X107500000Y-89500000D02*
X109641000Y-87359000D01*
X137380000Y-86120000D02*
X137500000Y-86000000D01*
X144450000Y-114190000D02*
X146101000Y-112539000D01*
X95748943Y-86601000D02*
X96101000Y-86248943D01*
X94500000Y-86500000D02*
X94601000Y-86601000D01*
X154590000Y-114190000D02*
X144450000Y-114190000D01*
%TO.N,Net-(J1-Pin_2)*%
X167500000Y-117500000D02*
X167500000Y-84500000D01*
X139500000Y-116730000D02*
X139846968Y-116730000D01*
X139846968Y-116730000D02*
X142616968Y-119500000D01*
X165500000Y-119500000D02*
X167500000Y-117500000D01*
X166460000Y-83460000D02*
X163000000Y-83460000D01*
X167500000Y-84500000D02*
X166460000Y-83460000D01*
X142616968Y-119500000D02*
X165500000Y-119500000D01*
%TO.N,/D5*%
X163476760Y-70571000D02*
X162523240Y-70571000D01*
X90998000Y-72435661D02*
X90998000Y-99652008D01*
X129516049Y-79739000D02*
X140986049Y-68269000D01*
X92900000Y-82100000D02*
X94160000Y-80840000D01*
X106000000Y-80840000D02*
X105304339Y-80840000D01*
X92900000Y-84550000D02*
X92900000Y-82100000D01*
X101225339Y-74659000D02*
X123123951Y-74659000D01*
X162523240Y-70571000D02*
X145000000Y-88094240D01*
X94160000Y-80840000D02*
X106000000Y-80840000D01*
X111010942Y-114449000D02*
X117959942Y-107500000D01*
X95435339Y-68869000D02*
X101225339Y-74659000D01*
X105794992Y-114449000D02*
X111010942Y-114449000D01*
X93949000Y-69484661D02*
X94564661Y-68869000D01*
X94564661Y-68869000D02*
X95435339Y-68869000D01*
X164151000Y-68943240D02*
X164151000Y-69896760D01*
X93949000Y-70355339D02*
X93949000Y-69484661D01*
X105304339Y-80840000D02*
X95435339Y-70971000D01*
X123123951Y-74659000D02*
X128203951Y-79739000D01*
X94564661Y-70971000D02*
X93949000Y-70355339D01*
X140986049Y-68269000D02*
X163476760Y-68269000D01*
X145000000Y-88094240D02*
X145000000Y-89400000D01*
X164151000Y-69896760D02*
X163476760Y-70571000D01*
X95435339Y-70971000D02*
X94564661Y-70971000D01*
X128203951Y-79739000D02*
X129516049Y-79739000D01*
X90998000Y-99652008D02*
X105794992Y-114449000D01*
X94564661Y-68869000D02*
X90998000Y-72435661D01*
X163476760Y-68269000D02*
X164151000Y-68943240D01*
%TO.N,/D6*%
X104608164Y-64919000D02*
X162666760Y-64919000D01*
X94500000Y-82500000D02*
X95500000Y-81500000D01*
X104902951Y-81500000D02*
X106000000Y-82597049D01*
X103500000Y-66027164D02*
X104608164Y-64919000D01*
X106000000Y-82597049D02*
X106000000Y-83380000D01*
X94500000Y-84550000D02*
X94500000Y-82500000D01*
X162666760Y-64919000D02*
X168500000Y-70752240D01*
X168500000Y-70752240D02*
X168500000Y-102000000D01*
X103500000Y-67000000D02*
X103500000Y-66027164D01*
X95500000Y-81500000D02*
X104902951Y-81500000D01*
%TO.N,/D2*%
X140000000Y-70000000D02*
X143000000Y-70000000D01*
X128860000Y-80840000D02*
X129160000Y-80840000D01*
X143580000Y-69420000D02*
X163000000Y-69420000D01*
X143000000Y-70000000D02*
X143580000Y-69420000D01*
X129160000Y-80840000D02*
X140000000Y-70000000D01*
%TO.N,/D1*%
X128860000Y-77640000D02*
X128860000Y-78300000D01*
X163000000Y-66880000D02*
X139620000Y-66880000D01*
X139620000Y-66880000D02*
X128860000Y-77640000D01*
%TO.N,/A0*%
X136941000Y-81941000D02*
X127941000Y-81941000D01*
X121760000Y-75760000D02*
X106000000Y-75760000D01*
X137500000Y-82500000D02*
X136941000Y-81941000D01*
X127941000Y-81941000D02*
X121760000Y-75760000D01*
%TO.N,/D4*%
X143120000Y-84000000D02*
X145120000Y-86000000D01*
X119801000Y-76861000D02*
X128860000Y-85920000D01*
X128860000Y-85920000D02*
X130780000Y-84000000D01*
X130780000Y-84000000D02*
X143120000Y-84000000D01*
X101941000Y-76861000D02*
X119801000Y-76861000D01*
X95000000Y-69920000D02*
X101941000Y-76861000D01*
%TO.N,Net-(U4A--)*%
X139846968Y-115460000D02*
X145000000Y-110306968D01*
X145000000Y-97500000D02*
X144500000Y-97500000D01*
X139500000Y-115460000D02*
X139846968Y-115460000D01*
X140450000Y-93450000D02*
X137380000Y-93450000D01*
X145000000Y-110306968D02*
X145000000Y-97500000D01*
X144500000Y-97500000D02*
X140450000Y-93450000D01*
%TO.N,/D8*%
X93949000Y-86976000D02*
X95433000Y-88460000D01*
X93949000Y-86000000D02*
X93949000Y-86976000D01*
X92900000Y-85850000D02*
X93799000Y-85850000D01*
X93799000Y-85850000D02*
X93949000Y-86000000D01*
X95433000Y-88460000D02*
X106000000Y-88460000D01*
%TD*%
M02*
