%TF.GenerationSoftware,KiCad,Pcbnew,9.0.0*%
%TF.CreationDate,2025-04-01T09:39:50+05:30*%
%TF.ProjectId,WMS,574d532e-6b69-4636-9164-5f7063625858,rev?*%
%TF.SameCoordinates,Original*%
%TF.FileFunction,Soldermask,Top*%
%TF.FilePolarity,Negative*%
%FSLAX46Y46*%
G04 Gerber Fmt 4.6, Leading zero omitted, Abs format (unit mm)*
G04 Created by KiCad (PCBNEW 9.0.0) date 2025-04-01 09:39:50*
%MOMM*%
%LPD*%
G01*
G04 APERTURE LIST*
G04 Aperture macros list*
%AMRoundRect*
0 Rectangle with rounded corners*
0 $1 Rounding radius*
0 $2 $3 $4 $5 $6 $7 $8 $9 X,Y pos of 4 corners*
0 Add a 4 corners polygon primitive as box body*
4,1,4,$2,$3,$4,$5,$6,$7,$8,$9,$2,$3,0*
0 Add four circle primitives for the rounded corners*
1,1,$1+$1,$2,$3*
1,1,$1+$1,$4,$5*
1,1,$1+$1,$6,$7*
1,1,$1+$1,$8,$9*
0 Add four rect primitives between the rounded corners*
20,1,$1+$1,$2,$3,$4,$5,0*
20,1,$1+$1,$4,$5,$6,$7,0*
20,1,$1+$1,$6,$7,$8,$9,0*
20,1,$1+$1,$8,$9,$2,$3,0*%
G04 Aperture macros list end*
%ADD10R,0.500000X0.350000*%
%ADD11R,1.700000X1.700000*%
%ADD12O,1.700000X1.700000*%
%ADD13C,1.600000*%
%ADD14O,1.600000X1.600000*%
%ADD15R,2.000000X2.000000*%
%ADD16O,2.000000X1.600000*%
%ADD17R,2.200000X2.200000*%
%ADD18O,2.200000X2.200000*%
%ADD19RoundRect,0.150000X-0.825000X-0.150000X0.825000X-0.150000X0.825000X0.150000X-0.825000X0.150000X0*%
%ADD20R,1.500000X1.500000*%
%ADD21C,1.500000*%
%ADD22RoundRect,0.375000X-0.625000X-0.375000X0.625000X-0.375000X0.625000X0.375000X-0.625000X0.375000X0*%
%ADD23RoundRect,0.500000X-0.500000X-1.400000X0.500000X-1.400000X0.500000X1.400000X-0.500000X1.400000X0*%
G04 APERTURE END LIST*
D10*
%TO.C,U3*%
X92900000Y-86500000D03*
X92900000Y-85850000D03*
X92900000Y-85200000D03*
X92900000Y-84550000D03*
X94500000Y-84550000D03*
X94500000Y-85200000D03*
X94500000Y-85850000D03*
X94500000Y-86500000D03*
%TD*%
D11*
%TO.C,J1*%
X163000000Y-80920000D03*
D12*
X163000000Y-83460000D03*
X163000000Y-86000000D03*
%TD*%
D13*
%TO.C,R5*%
X137380000Y-93450000D03*
D14*
X145000000Y-93450000D03*
%TD*%
D15*
%TO.C,U1*%
X106000000Y-73220000D03*
D16*
X106000000Y-75760000D03*
X106000000Y-78300000D03*
X106000000Y-80840000D03*
X106000000Y-83380000D03*
X106000000Y-85920000D03*
X106000000Y-88460000D03*
X106000000Y-91000000D03*
X128860000Y-91000000D03*
X128860000Y-88460000D03*
X128860000Y-85920000D03*
X128860000Y-83380000D03*
X128860000Y-80840000D03*
X128860000Y-78300000D03*
X128860000Y-75760000D03*
X128860000Y-73220000D03*
%TD*%
D13*
%TO.C,R1*%
X155400000Y-115000000D03*
X163000000Y-115000000D03*
%TD*%
%TO.C,R4*%
X137380000Y-89400000D03*
D14*
X145000000Y-89400000D03*
%TD*%
D17*
%TO.C,D1*%
X94500000Y-107340000D03*
D18*
X94500000Y-117500000D03*
%TD*%
D13*
%TO.C,R2*%
X137500000Y-82500000D03*
D14*
X145120000Y-82500000D03*
%TD*%
D13*
%TO.C,C2*%
X124500000Y-117500000D03*
X129500000Y-117500000D03*
%TD*%
D11*
%TO.C,J4*%
X163000000Y-74500000D03*
D12*
X163000000Y-71960000D03*
X163000000Y-69420000D03*
X163000000Y-66880000D03*
%TD*%
D19*
%TO.C,U4*%
X139500000Y-114190000D03*
X139500000Y-115460000D03*
X139500000Y-116730000D03*
X139500000Y-118000000D03*
X144450000Y-118000000D03*
X144450000Y-116730000D03*
X144450000Y-115460000D03*
X144450000Y-114190000D03*
%TD*%
D11*
%TO.C,J2*%
X163000000Y-95000000D03*
D12*
X163000000Y-92460000D03*
%TD*%
D13*
%TO.C,C1*%
X124500000Y-111000000D03*
X129500000Y-111000000D03*
%TD*%
%TO.C,R6*%
X137380000Y-97500000D03*
D14*
X145000000Y-97500000D03*
%TD*%
D20*
%TO.C,U2*%
X95000000Y-67380000D03*
D21*
X95000000Y-69920000D03*
X95000000Y-72460000D03*
X95000000Y-75000000D03*
%TD*%
D13*
%TO.C,R3*%
X137500000Y-86000000D03*
D14*
X145120000Y-86000000D03*
%TD*%
D11*
%TO.C,J3*%
X163000000Y-107000000D03*
D12*
X163000000Y-104460000D03*
X163000000Y-101920000D03*
%TD*%
D22*
%TO.C,U5*%
X106700000Y-113200000D03*
X106700000Y-115500000D03*
D23*
X113000000Y-115500000D03*
D22*
X106700000Y-117800000D03*
%TD*%
M02*
