M48
; DRILL file {KiCad 9.0.0} date 2025-04-01T09:50:04+0530
; FORMAT={-:-/ absolute / metric / decimal}
; #@! TF.CreationDate,2025-04-01T09:50:04+05:30
; #@! TF.GenerationSoftware,Kicad,Pcbnew,9.0.0
; #@! TF.FileFunction,Plated,1,2,PTH
FMAT,2
METRIC
; #@! TA.AperFunction,Plated,PTH,ViaDrill
T1C0.300
; #@! TA.AperFunction,Plated,PTH,ComponentDrill
T2C0.800
; #@! TA.AperFunction,Plated,PTH,ComponentDrill
T3C0.900
; #@! TA.AperFunction,Plated,PTH,ComponentDrill
T4C1.000
; #@! TA.AperFunction,Plated,PTH,ComponentDrill
T5C1.100
%
G90
G05
T1
X91.5Y-67.5
X92.0Y-83.5
X92.0Y-85.0
X92.0Y-86.0
X92.0Y-89.5
X95.5Y-86.0
X95.5Y-89.5
X96.0Y-82.5
X97.0Y-83.5
X97.0Y-85.5
X103.5Y-67.0
X104.0Y-83.5
X106.5Y-111.5
X125.0Y-107.5
X129.5Y-109.0
X133.5Y-80.0
X133.5Y-88.5
X137.5Y-80.0
X139.5Y-107.5
X141.5Y-80.0
X141.5Y-101.5
X147.0Y-82.5
X150.0Y-89.5
X152.5Y-89.5
X152.5Y-101.5
X160.5Y-86.0
X163.0Y-99.5
X165.5Y-107.0
X168.5Y-102.0
X168.5Y-107.5
T2
X95.0Y-67.38
X95.0Y-69.92
X95.0Y-72.46
X95.0Y-75.0
X124.5Y-111.0
X124.5Y-117.5
X129.5Y-111.0
X129.5Y-117.5
X137.38Y-89.4
X137.38Y-93.45
X137.38Y-97.5
X137.5Y-82.5
X137.5Y-86.0
X145.0Y-89.4
X145.0Y-93.45
X145.0Y-97.5
X145.12Y-82.5
X145.12Y-86.0
X155.4Y-115.0
X163.0Y-115.0
T3
X106.0Y-73.22
X106.0Y-75.76
X106.0Y-78.3
X106.0Y-80.84
X106.0Y-83.38
X106.0Y-85.92
X106.0Y-88.46
X106.0Y-91.0
X128.86Y-73.22
X128.86Y-75.76
X128.86Y-78.3
X128.86Y-80.84
X128.86Y-83.38
X128.86Y-85.92
X128.86Y-88.46
X128.86Y-91.0
T4
X163.0Y-66.88
X163.0Y-69.42
X163.0Y-71.96
X163.0Y-74.5
X163.0Y-80.92
X163.0Y-83.46
X163.0Y-86.0
X163.0Y-92.46
X163.0Y-95.0
X163.0Y-101.92
X163.0Y-104.46
X163.0Y-107.0
T5
X94.5Y-107.34
X94.5Y-117.5
M30
